<svg width="1034" height="215" viewBox="0 0 1034 215" fill="none" xmlns="http://www.w3.org/2000/svg">
<path d="M51.0405 52.84C73.9605 52.96 92.4405 71.56 92.4405 94.48C92.4405 117.4 73.8405 136 50.9205 136H48.5205H36.7605C30.0405 136 24.6405 131.92 24.6405 126.88V62.08C24.6405 56.92 22.4805 52.84 15.8805 52.84H50.9205H51.0405ZM51.0405 135.4C66.0405 135.4 78.0405 117.28 77.9205 94.72C77.9205 72.16 65.8005 53.8 50.9205 53.56H32.0805C36.5205 54.88 39.7605 58.12 39.7605 61.96V126.88C39.7605 130.72 40.9605 134.08 44.5605 135.4H51.0405ZM102.73 136H98.8047H95.2305V134.77H98.8047V95.2188H95.2305V93.9883H98.8047V53.207H95.2305V51.9766H98.8047H102.73H106.656H110.289H136.188C138.18 51.9766 139.996 52.6211 141.578 53.8516C143.102 55.082 144.156 56.6641 144.684 58.7148L146.793 67.5625H145.328C142.164 63.0508 138.238 59.5352 133.434 57.0156C128.688 54.4375 123.531 53.207 118.082 53.207H110.289H106.656V93.9883H122.77C125.055 93.9883 126.988 93.168 128.629 91.5859C130.211 90.0039 131.031 88.0117 131.031 85.7852H132.203V103.422H131.031C131.031 101.195 130.211 99.2031 128.629 97.6211C126.988 96.0391 125.055 95.2188 122.77 95.2188H106.656V134.77H110.289H118.082C123.531 134.77 128.688 133.539 133.434 131.02C138.238 128.5 142.164 124.926 145.328 120.414H146.793L144.684 129.32C144.156 131.312 143.102 132.895 141.578 134.184C139.996 135.414 138.18 136 136.188 136H110.289H106.656H102.73ZM187.812 87.52C209.172 87.64 216.852 98.92 216.852 109.36C216.972 118.12 213.612 127.48 207.372 132.28C205.572 133.6 203.772 134.8 201.732 135.4C198.252 136.24 194.052 136.12 187.812 136.12C180.252 136.12 170.892 136 168.372 135.4C159.972 133.6 155.292 117.76 160.812 104.92L172.212 115C172.212 115 171.612 116.56 171.612 119.68C171.492 129.64 179.532 136.12 186.732 135.88C195.972 135.64 201.852 127.96 201.852 119.68C201.852 112 201.372 106.84 195.372 103.6C192.492 102.16 187.332 102.64 185.412 102.64C164.052 102.52 156.372 90.16 156.372 79.6C156.252 70.84 159.612 61.48 165.852 56.68C167.652 55.36 169.452 54.16 171.492 53.68C174.972 52.72 179.172 52.96 185.412 52.96C192.972 52.96 202.332 53.08 204.852 53.56C213.252 55.36 217.932 71.2 212.412 84.04L201.012 73.96C201.012 73.96 201.612 72.4 201.612 69.28C201.732 59.44 193.692 52.96 186.492 53.2C177.252 53.44 171.372 61 171.372 69.28C171.372 79.24 172.572 87.52 185.412 87.52C186.252 87.52 187.692 87.52 187.812 87.52ZM243.201 126.88C243.201 131.92 245.361 136 251.961 136H240.201C233.601 136 228.201 131.92 228.201 126.88V62.08C228.201 57.04 226.041 52.96 219.441 52.96H231.201C237.801 52.96 243.201 57.04 243.201 62.08V126.88ZM328.501 126.88C328.501 131.92 330.661 136 337.261 136H325.501C319.141 136 313.981 132.28 313.501 127.6C307.261 132.88 299.341 136 290.821 136C270.061 136 253.261 117.4 253.261 94.48C253.261 71.56 270.061 52.84 290.821 52.84C306.901 52.84 320.461 64 325.981 79.6H309.061C301.021 62.8 287.821 52.48 277.381 55.96C265.381 59.8 261.661 80.32 269.101 101.68C276.421 123.04 292.141 137.08 304.021 133.24C308.221 131.8 311.461 128.44 313.381 123.64V113.68C313.381 108.64 311.341 104.56 304.621 104.56H316.501C323.101 104.56 328.501 108.64 328.501 113.68V126.88ZM335.853 52.96H359.013C359.613 69.04 404.133 109 404.133 136.12H389.133C389.133 110.68 350.013 83.68 344.613 58.6V130C345.213 132.76 346.893 135.04 350.253 135.76C351.093 135.88 352.053 136 353.013 136H335.493C336.573 136 337.413 135.88 338.253 135.76C341.613 135.04 343.293 132.76 343.893 130V57.88C343.053 55.6 341.493 53.92 338.613 53.2C337.773 53.08 336.813 52.96 335.853 52.96ZM395.613 52.96H413.253C412.173 52.96 411.333 53.08 410.493 53.2C407.013 54.04 405.333 56.2 404.733 59.2V136.12H404.133V59.2C403.533 56.2 401.853 54.04 398.373 53.2C397.653 53.08 396.693 52.96 395.613 52.96ZM436.56 126.88C436.56 131.92 438.72 136 445.32 136H433.56C426.96 136 421.56 131.92 421.56 126.88V62.08C421.56 57.04 419.4 52.96 412.8 52.96H424.56C431.16 52.96 436.56 57.04 436.56 62.08V126.88ZM445.54 52.96H468.7C469.3 69.04 513.82 109 513.82 136.12H498.82C498.82 110.68 459.7 83.68 454.3 58.6V130C454.9 132.76 456.58 135.04 459.94 135.76C460.78 135.88 461.74 136 462.7 136H445.18C446.26 136 447.1 135.88 447.94 135.76C451.3 135.04 452.98 132.76 453.58 130V57.88C452.74 55.6 451.18 53.92 448.3 53.2C447.46 53.08 446.5 52.96 445.54 52.96ZM505.3 52.96H522.94C521.86 52.96 521.02 53.08 520.18 53.2C516.7 54.04 515.02 56.2 514.42 59.2V136.12H513.82V59.2C513.22 56.2 511.54 54.04 508.06 53.2C507.34 53.08 506.38 52.96 505.3 52.96ZM600.728 126.88C600.728 131.92 602.888 136 609.488 136H597.728C591.368 136 586.208 132.28 585.728 127.6C579.488 132.88 571.568 136 563.048 136C542.288 136 525.488 117.4 525.488 94.48C525.488 71.56 542.288 52.84 563.048 52.84C579.128 52.84 592.688 64 598.208 79.6H581.288C573.248 62.8 560.048 52.48 549.608 55.96C537.608 59.8 533.888 80.32 541.328 101.68C548.648 123.04 564.368 137.08 576.248 133.24C580.448 131.8 583.688 128.44 585.608 123.64V113.68C585.608 108.64 583.568 104.56 576.848 104.56H588.728C595.328 104.56 600.728 108.64 600.728 113.68V126.88Z" fill="#282121"/>
<path d="M669.538 48.9436L678.645 48.9893C673.494 48.9634 671.822 52.0831 671.802 55.947L671.553 105.626C671.533 109.49 667.378 112.598 662.318 112.572L657.166 112.546C650.357 112.604 643.363 113.121 639.239 109.788C632.093 103.864 630.02 95.3896 631.452 84.9086C634.125 65.6938 654.481 60.9201 660.22 72.265L660.303 55.8892C660.322 52.0253 664.478 48.9181 669.538 48.9436ZM660.053 105.569L660.219 72.449C660.219 72.449 645.72 65.2001 642.844 88.2779C642.458 91.772 642.985 115.143 656.525 111.991C659.106 110.992 660.038 108.513 660.053 105.569ZM693.5 88.5325C693.604 68.0167 724.302 55.5669 725.376 80.0446L713.876 79.9868C713.391 66.5522 694.859 74.4631 693.495 89.6365L693.5 88.5325ZM693.414 105.736C693.395 109.6 694.943 112.736 700.095 112.762L691.079 112.717C685.927 112.691 681.803 109.542 681.822 105.678L681.984 73.3864C682.004 69.5225 680.456 66.3867 675.304 66.3608L684.32 66.4061C689.471 66.432 693.596 69.5807 693.576 73.4447L693.414 105.736ZM758.234 111.582C762.565 110.132 764.257 103.056 762.92 94.4014L771.55 98.0328C768.378 106.849 760.159 113.064 750.591 113.016C738.263 112.954 728.287 102.599 728.351 89.8116C728.358 88.4317 728.549 87.0526 728.739 85.7655L728.647 85.7651L728.65 85.2131L728.834 85.214C730.911 74.6443 739.967 66.6857 750.823 66.7403C761.863 66.7957 770.93 75.0294 772.715 85.9865L739.043 85.8173C739.492 88.1196 740.031 90.6063 740.939 93.0949C744.926 105.167 752.705 113.394 758.234 111.582ZM743.641 67.9922C739.309 69.4424 737.618 76.518 739.046 85.2653L760.574 85.3735C756.491 73.9448 748.986 66.179 743.641 67.9922ZM817.635 106.361C817.615 110.224 819.256 113.361 824.315 113.386L815.3 113.341C810.24 113.315 806.115 110.167 806.135 106.303L806.257 81.923C806.257 81.923 787.76 82.9341 788.872 99.6839C789.545 112.107 806.135 106.303 806.135 106.303L806.134 106.487C804.561 108.227 780.378 123.838 777.458 100.915C775.688 86.9215 797.895 79.949 806.258 81.831L806.297 74.0111C806.3 73.3671 806.211 72.8147 806.122 72.1702C804.502 65.17 789.885 62.8885 787.03 81.7344L777.37 81.6859C777.659 79.1113 783.241 66.8112 796.857 66.8796L806.332 67.0192L808.632 67.0308C813.692 67.0562 817.816 70.205 817.797 74.0689L817.635 106.361ZM902.083 106.785C902.064 110.649 903.704 113.785 908.764 113.811L899.748 113.765C894.688 113.74 890.564 110.591 890.583 106.727L890.713 80.8754C890.229 67.4408 871.697 75.3518 870.332 90.5251L870.252 106.625C870.232 110.489 871.872 113.625 876.932 113.651L867.916 113.605C862.765 113.579 858.732 110.431 858.752 106.567L858.882 80.7154C858.397 67.2808 839.865 75.1918 838.501 90.3652L838.42 106.465C838.401 110.329 839.949 113.465 845.101 113.491L836.085 113.445C830.933 113.419 826.809 110.271 826.828 106.407L826.99 74.1151C827.01 70.2512 825.462 67.1153 820.31 67.0894L829.326 67.1348C834.477 67.1606 838.602 70.3094 838.582 74.1734L838.506 89.2612C838.61 68.6534 869.308 56.2955 870.381 80.7732L870.338 89.4211C870.442 68.8134 901.14 56.4555 902.213 80.9332L902.083 106.785ZM950.429 114.02C950.385 122.724 947.276 130.09 941.102 136.117C934.927 142.23 927.488 145.265 918.784 145.221C910.165 145.178 902.799 142.069 896.686 135.894C890.573 129.805 887.538 122.408 887.582 113.704C887.604 109.267 888.478 105.132 890.204 101.301L891.226 101.69C889.585 105.607 888.754 109.614 888.734 113.71C888.692 122.072 891.642 129.213 897.586 135.131C903.444 141.133 910.512 144.156 918.789 144.197C925.957 144.233 932.073 141.277 937.138 135.329C942.202 129.467 944.755 122.354 944.797 113.992C944.869 99.5705 937.659 90.9581 923.166 88.1546C918.819 87.2794 915.371 85.6407 912.823 83.2385C910.275 80.751 909.096 77.7157 909.285 74.1326C909.473 70.5495 910.769 67.5267 913.17 65.0641C915.572 62.6014 918.522 61.3789 922.021 61.3965C925.52 61.4141 928.5 62.7091 930.961 65.2815C933.424 67.7685 934.646 70.7614 934.628 74.26C934.618 76.308 934.139 78.2683 933.191 80.1409L932.553 79.7536C933.414 78.1366 933.85 76.3041 933.86 74.2561C933.877 71.0135 932.739 68.2344 930.446 65.9189C928.154 63.518 925.43 62.3096 922.272 62.2938C920.139 62.283 918.3 63.2125 916.754 65.0821C915.209 66.9517 914.428 69.5078 914.412 72.7504C914.383 78.4677 917.523 81.9395 923.832 83.1659C931.93 84.7426 938.314 88.1027 942.981 93.2462C947.989 98.6475 950.471 105.572 950.429 114.02Z" fill="#282121"/>
</svg>
