<svg width="924" height="162" viewBox="0 0 924 162" fill="none" xmlns="http://www.w3.org/2000/svg">
<path d="M477.747 71.4041C477.82 50.8882 508.501 38.3935 509.61 62.8696L498.11 62.8286C497.606 49.3947 479.086 57.3328 477.743 72.5081L477.747 71.4041ZM477.686 88.608C477.672 92.472 479.225 95.6055 484.377 95.6239L475.361 95.5918C470.209 95.5734 466.08 92.4307 466.094 88.5667L466.209 56.2749C466.223 52.4109 464.67 49.2774 459.518 49.259L468.534 49.2911C473.686 49.3095 477.815 52.4522 477.801 56.3162L477.686 88.608ZM542.515 94.359C546.844 92.9024 548.525 85.8244 547.176 77.1715L555.811 80.7903C552.652 89.6111 544.441 95.8379 534.873 95.8038C522.545 95.7599 512.554 85.4202 512.6 72.6323C512.605 71.2523 512.794 69.873 512.982 68.5856L512.89 68.5853L512.892 68.0333L513.076 68.034C515.138 57.4612 524.182 49.4894 535.038 49.5281C546.078 49.5674 555.157 57.7878 556.958 68.7423L523.286 68.6223C523.738 70.924 524.281 73.4099 525.192 75.8972C529.197 87.9635 536.988 96.1793 542.515 94.359ZM527.858 50.7905C523.528 52.2471 521.847 59.3251 523.288 68.0703L544.816 68.147C540.717 56.7244 533.2 48.9695 527.858 50.7905ZM601.908 89.0506C601.894 92.9145 603.539 96.0484 608.599 96.0664L599.583 96.0343C594.523 96.0163 590.394 92.8736 590.408 89.0096L590.495 64.6297C590.495 64.6297 571.999 65.6679 573.135 82.416C573.827 94.8386 590.408 89.0096 590.408 89.0096L590.407 89.1936C588.837 90.936 564.677 106.582 561.723 83.6634C559.932 69.6729 582.129 62.6679 590.495 64.5377L590.523 56.7178C590.525 56.0738 590.435 55.5215 590.345 54.8771C588.714 47.8793 574.094 45.6192 571.267 64.4692L561.607 64.4348C561.892 61.8598 567.456 49.5516 581.072 49.6001L590.548 49.7258L592.848 49.734C597.908 49.7521 602.036 52.8948 602.023 56.7588L601.908 89.0506ZM620.581 89.1171C620.568 92.9811 622.212 96.1149 627.272 96.133L618.256 96.1008C613.196 96.0828 609.068 92.9401 609.081 89.0761L609.258 39.3964C609.272 35.5324 607.627 32.3986 602.475 32.3802L611.583 32.4127C616.643 32.4307 620.772 35.5734 620.758 39.4374L620.581 89.1171ZM654.991 50.4154L646.251 50.3843L646.113 89.208C646.099 93.072 647.744 96.2059 652.804 96.2239L643.788 96.1918C638.728 96.1738 634.599 93.031 634.613 89.1671L634.751 50.3433L626.103 50.3125L626.105 49.7605L634.753 49.7913L634.774 43.9954C634.796 37.6474 639.967 32.5138 646.314 32.5364L646.253 49.8323L654.993 49.8634L654.991 50.4154ZM672.646 89.3026C672.632 93.1665 674.185 96.3001 679.337 96.3184L670.321 96.2863C665.169 96.268 661.04 93.1252 661.054 89.2613L661.169 56.9695C661.183 53.1055 659.63 49.9719 654.478 49.9536L663.494 49.9857C668.646 50.0041 672.775 53.1468 672.761 57.0108L672.646 89.3026ZM666.998 47.6062C667.013 43.4662 663.897 40.0511 661.229 40.0416C663.897 40.0511 667.037 36.7502 667.052 32.6103C667.037 36.7502 670.153 40.0734 672.821 40.0829C670.153 40.0734 667.013 43.4662 666.998 47.6062ZM710.162 94.9563C714.491 93.4997 716.172 86.4216 714.823 77.7688L723.458 81.3875C720.299 90.2083 712.089 96.4351 702.521 96.401C690.193 96.3571 680.202 86.0175 680.247 73.2295C680.252 71.8496 680.441 70.4702 680.63 69.1829L680.538 69.1826L680.54 68.6306L680.724 68.6312C682.785 58.0585 691.83 50.0867 702.686 50.1253C713.726 50.1647 722.804 58.3851 724.605 69.3395L690.933 69.2196C691.385 71.5212 691.928 74.0072 692.84 76.4944C696.845 88.5608 704.635 96.7766 710.162 94.9563ZM695.505 51.3878C691.176 52.8443 689.495 59.9224 690.935 68.6676L712.463 68.7443C708.364 57.3216 700.848 49.5668 695.505 51.3878ZM769.482 96.6396C769.451 105.344 766.353 112.714 760.187 118.751C754.021 124.873 746.586 127.918 737.883 127.887C729.264 127.857 721.894 124.758 715.772 118.592C709.649 112.512 706.603 105.12 706.634 96.4157C706.65 91.9784 707.518 87.8428 709.239 84.0089L710.261 84.3965C708.626 88.3161 707.801 92.3238 707.786 96.4198C707.757 104.782 710.718 111.918 716.67 117.828C722.537 123.822 729.609 126.834 737.886 126.863C745.054 126.889 751.166 123.924 756.222 117.968C761.278 112.098 763.82 104.982 763.85 96.6195C763.901 82.1983 756.679 73.5965 742.182 70.8142C737.833 69.9453 734.383 68.3117 731.831 65.9133C729.28 63.4295 728.096 60.3959 728.28 56.8126C728.463 53.2292 729.754 50.2044 732.152 47.7383C734.55 45.2722 737.499 44.0453 740.997 44.0578C744.496 44.0702 747.478 45.3609 749.943 47.9297C752.409 50.4131 753.636 53.4042 753.624 56.9029C753.616 58.9508 753.14 60.9118 752.195 62.7858L751.556 62.3995C752.415 60.7812 752.848 58.9481 752.856 56.9001C752.867 53.6575 751.725 50.88 749.429 48.5679C747.134 46.1703 744.407 44.9659 741.25 44.9547C739.117 44.9471 737.279 45.8792 735.736 47.7511C734.193 49.6229 733.416 52.1802 733.405 55.4228C733.384 61.1401 736.529 64.6073 742.84 65.8245C750.941 67.3894 757.329 70.7401 762.004 75.8768C767.019 81.2707 769.512 88.1917 769.482 96.6396Z" fill="#2D1919"/>
<path d="M65.7438 79.56L75.8238 84C70.5438 99.72 56.7438 111 40.5438 111C19.7838 111 2.98375 92.4 2.98375 69.48C2.98375 46.56 19.7838 27.84 40.5438 27.84C56.6238 27.84 70.1838 39 75.7038 54.6H58.7838C50.7438 37.8 37.5438 27.48 27.1038 30.96C15.1038 34.8 11.3838 55.32 18.8238 76.68C26.1438 98.04 41.8638 112.08 53.7438 108.24C62.5038 105.36 66.8238 93.72 65.7438 79.56ZM118.353 27.72C98.4334 27.72 89.5534 47.04 89.5534 69C89.5534 90.84 98.4334 110.28 118.353 110.28C138.393 110.28 147.273 90.84 147.273 69C147.273 47.04 138.393 27.72 118.353 27.72ZM118.353 111.96C96.2734 111.96 83.6734 93.12 83.6734 69C83.6734 44.88 96.2734 26.04 118.353 26.04C140.793 26.04 153.153 44.88 153.153 69C153.153 93.12 140.793 111.96 118.353 111.96ZM193.107 27.84C216.027 27.96 234.507 46.56 234.507 69.48C234.507 92.4 215.907 111 192.987 111H190.587H178.827C172.107 111 166.707 106.92 166.707 101.88V37.08C166.707 31.92 164.547 27.84 157.947 27.84H192.987H193.107ZM193.107 110.4C208.107 110.4 220.107 92.28 219.987 69.72C219.987 47.16 207.867 28.8 192.987 28.56H174.147C178.587 29.88 181.827 33.12 181.827 36.96V101.88C181.827 105.72 183.027 109.08 186.627 110.4H193.107ZM260.697 101.88C260.697 106.92 262.857 111 269.457 111H257.697C251.097 111 245.697 106.92 245.697 101.88V37.08C245.697 32.04 243.537 27.96 236.937 27.96H248.697C255.297 27.96 260.697 32.04 260.697 37.08V101.88ZM269.677 27.96H292.837C293.437 44.04 337.957 84 337.957 111.12H322.957C322.957 85.68 283.837 58.68 278.437 33.6V105C279.037 107.76 280.717 110.04 284.077 110.76C284.917 110.88 285.877 111 286.837 111H269.317C270.397 111 271.237 110.88 272.077 110.76C275.437 110.04 277.117 107.76 277.717 105V32.88C276.877 30.6 275.317 28.92 272.437 28.2C271.597 28.08 270.637 27.96 269.677 27.96ZM329.437 27.96H347.077C345.997 27.96 345.157 28.08 344.317 28.2C340.837 29.04 339.157 31.2 338.557 34.2V111.12H337.957V34.2C337.357 31.2 335.677 29.04 332.197 28.2C331.477 28.08 330.517 27.96 329.437 27.96ZM424.864 101.88C424.864 106.92 427.024 111 433.624 111H421.864C415.504 111 410.344 107.28 409.864 102.6C403.624 107.88 395.704 111 387.184 111C366.424 111 349.624 92.4 349.624 69.48C349.624 46.56 366.424 27.84 387.184 27.84C403.264 27.84 416.824 39 422.344 54.6H405.424C397.384 37.8 384.184 27.48 373.744 30.96C361.744 34.8 358.024 55.32 365.464 76.68C372.784 98.04 388.504 112.08 400.384 108.24C404.584 106.8 407.824 103.44 409.744 98.64V88.68C409.744 83.64 407.704 79.56 400.984 79.56H412.864C419.464 79.56 424.864 83.64 424.864 88.68V101.88Z" fill="#282121"/>
</svg>
