<svg width="370" height="58" viewBox="0 0 370 58" fill="none" xmlns="http://www.w3.org/2000/svg">
<path d="M0.1975 1.64H50.3575V7.72C50.3575 5.08 49.4775 2.92 47.0775 2.04H30.2775V50.92C30.2775 54.28 31.7175 57 36.1175 57H28.2775C23.8775 57 20.2775 54.28 20.2775 50.92V8.12C20.2775 4.76 18.8375 2.04 14.4375 2.04H3.4775C1.0775 2.92 0.1975 5.08 0.1975 7.72V1.64ZM76.5231 57.8C61.7231 57.8 51.4031 46.68 51.4031 29.56C51.4031 11.48 61.7231 0.199997 76.5231 0.199997C81.0831 0.199997 85.2431 1.32 88.7631 3.4C92.6031 1.24 97.0031 0.36 101.403 0.36C111.883 0.36 118.923 6.44 118.923 12.28C118.923 14.52 117.643 15.48 116.123 15.48C115.803 15.48 115.483 15.4 115.163 15.32C115.163 6.92 108.763 1.08 100.603 1.08C96.5231 1.08 92.8431 1.96 89.8031 4.04C95.8831 8.12 100.043 15.24 101.083 24.68H125.963V57H121.963V40.76C119.403 52.76 111.083 57.8 101.403 57.8C96.5231 57.8 92.2831 56.76 88.6831 54.68C85.1631 56.76 81.0831 57.8 76.5231 57.8ZM76.5231 57C80.6031 57 84.3631 56.12 87.5631 54.04C80.3631 49.4 76.2831 40.76 76.2831 29.56C76.2831 16.2 81.0031 8.28 87.5631 4.12C84.4431 1.96 80.6031 0.999996 76.5231 0.999996C64.9231 0.999996 55.6431 8.36 55.6431 29.4C55.6431 49.8 64.9231 57 76.5231 57ZM80.5231 29.4C80.5231 40.76 84.2031 48.2 89.5631 52.44C94.2031 48.28 97.0831 40.92 97.0831 29.4C97.0831 16.68 93.8031 9 88.6831 4.84C83.6431 9 80.5231 16.68 80.5231 29.4ZM90.8431 53.32C94.2831 55.64 98.2831 56.68 102.523 56.68C112.763 56.68 121.963 50.12 121.963 32.52V25.48H101.163C101.243 26.76 101.323 28.12 101.323 29.56C101.323 40.2 97.3231 48.6 90.8431 53.32ZM172.291 7.72C172.291 5.08 171.411 2.92 169.011 2.04H137.091C140.051 2.92 142.131 5.08 142.131 7.72V29.4H154.291C156.131 29 157.571 27.88 158.131 25.64C158.211 25.08 158.291 24.52 158.291 23.8V35.48C158.291 34.84 158.211 34.2 158.131 33.64C157.571 31.4 156.131 30.28 154.291 29.88H142.131V50.92C142.131 53.4 142.931 55.56 145.171 56.52C145.411 56.6 145.571 56.6 145.891 56.6H169.011C171.411 55.72 172.291 53.56 172.291 50.92V57H166.451H166.531H140.131C135.731 57 132.131 54.28 132.131 50.92V7.72C132.131 4.36 130.691 1.64 126.291 1.64H134.131H172.291V7.72ZM172.854 1.64H223.014V7.72C223.014 5.08 222.134 2.92 219.734 2.04H202.934V50.92C202.934 54.28 204.374 57 208.774 57H200.934C196.534 57 192.934 54.28 192.934 50.92V8.12C192.934 4.76 191.494 2.04 187.094 2.04H176.134C173.734 2.92 172.854 5.08 172.854 7.72V1.64ZM248.539 20.92C248.539 25.72 252.219 29.64 255.259 29.64C252.219 29.64 248.539 33.56 248.539 38.36C248.539 33.56 244.859 29.64 241.899 29.64C244.859 29.64 248.539 25.72 248.539 20.92ZM238.459 50.92C238.459 54.28 239.899 57 244.299 57H236.459C232.059 57 228.459 54.28 228.459 50.92V7.72C228.459 4.36 227.019 1.64 222.619 1.64H230.459C234.859 1.64 238.459 4.36 238.459 7.72V50.92ZM268.619 50.92C268.619 54.28 269.979 57 274.459 57H266.619C262.139 57 258.539 54.28 258.539 50.92V7.72C258.539 4.36 257.099 1.64 252.699 1.64H260.539C265.019 1.64 268.619 4.36 268.619 7.72V50.92ZM317.526 7.72C317.526 5.08 316.646 2.92 314.246 2.04H282.326C285.286 2.92 287.366 5.08 287.366 7.72V29.4H299.526C301.366 29 302.806 27.88 303.366 25.64C303.446 25.08 303.526 24.52 303.526 23.8V35.48C303.526 34.84 303.446 34.2 303.366 33.64C302.806 31.4 301.366 30.28 299.526 29.88H287.366V50.92C287.366 53.4 288.166 55.56 290.406 56.52C290.646 56.6 290.806 56.6 291.126 56.6H314.246C316.646 55.72 317.526 53.56 317.526 50.92V57H311.686H311.766H285.366C280.966 57 277.366 54.28 277.366 50.92V7.72C277.366 4.36 275.926 1.64 271.526 1.64H279.366H317.526V7.72ZM364.088 50.92C364.088 54.28 365.448 57 369.928 57H362.088C357.608 57 354.008 54.28 354.008 50.92V41.64C354.008 39.08 353.208 36.92 350.808 36.04H344.648V35.96C340.168 35.96 336.088 34.6 333.928 31.8V31.64C333.928 31.64 348.968 36.68 351.848 20.6C352.168 18.44 351.688 4.2 342.408 2.12C342.168 2.04 341.928 2.04 341.768 2.04H328.888C331.848 2.92 333.928 5.16 333.928 7.72V50.92C333.928 54.28 335.368 57 339.768 57H331.928C327.528 57 323.928 54.28 323.928 50.92V7.72C323.928 4.36 322.488 1.64 318.088 1.64H342.408C347.528 1.64 352.248 1.88 355.368 3.56C362.888 7.64 365.128 15.56 363.608 22.84C362.248 30.04 355.608 34.28 348.808 35.56H356.088C360.488 35.64 364.088 38.36 364.088 41.64V50.92Z" fill="#282121"/>
<path d="M0.1975 1.64V0.639997H-0.8025V1.64H0.1975ZM50.3575 1.64H51.3575V0.639997H50.3575V1.64ZM47.0775 2.04L47.4218 1.10112L47.2551 1.04H47.0775V2.04ZM30.2775 2.04V1.04H29.2775V2.04H30.2775ZM3.4775 2.04V1.04H3.29995L3.13325 1.10112L3.4775 2.04ZM0.1975 2.64H50.3575V0.639997H0.1975V2.64ZM49.3575 1.64V7.72H51.3575V1.64H49.3575ZM51.3575 7.72C51.3575 6.29983 51.1224 4.92274 50.5009 3.75128C49.8664 2.55551 48.8555 1.62681 47.4218 1.10112L46.7332 2.97887C47.6996 3.33318 48.3286 3.92448 48.7342 4.68871C49.1526 5.47725 49.3575 6.50016 49.3575 7.72H51.3575ZM47.0775 1.04H30.2775V3.04H47.0775V1.04ZM29.2775 2.04V50.92H31.2775V2.04H29.2775ZM29.2775 50.92C29.2775 52.7197 29.6598 54.507 30.777 55.8574C31.9235 57.2433 33.7011 58 36.1175 58V56C34.1339 56 32.9915 55.3967 32.318 54.5826C31.6152 53.733 31.2775 52.4803 31.2775 50.92H29.2775ZM36.1175 56H28.2775V58H36.1175V56ZM28.2775 56C26.2766 56 24.4933 55.3803 23.2319 54.4233C21.971 53.4667 21.2775 52.2187 21.2775 50.92H19.2775C19.2775 52.9813 20.384 54.7733 22.0231 56.0167C23.6617 57.2597 25.8784 58 28.2775 58V56ZM21.2775 50.92V8.12H19.2775V50.92H21.2775ZM21.2775 8.12C21.2775 6.32029 20.8952 4.533 19.778 3.18257C18.6315 1.7967 16.8539 1.04 14.4375 1.04V3.04C16.4211 3.04 17.5635 3.64329 18.237 4.45742C18.9398 5.30699 19.2775 6.55971 19.2775 8.12H21.2775ZM14.4375 1.04H3.4775V3.04H14.4375V1.04ZM3.13325 1.10112C1.69955 1.62681 0.688642 2.55551 0.0541506 3.75128C-0.567439 4.92274 -0.8025 6.29983 -0.8025 7.72H1.1975C1.1975 6.50016 1.40244 5.47725 1.82085 4.68871C2.22636 3.92448 2.85545 3.33318 3.82175 2.97887L3.13325 1.10112ZM1.1975 7.72V1.64H-0.8025V7.72H1.1975ZM88.7631 3.4L88.2544 4.26092L88.7508 4.55427L89.2534 4.27157L88.7631 3.4ZM115.163 15.32H114.163V16.1008L114.921 16.2901L115.163 15.32ZM89.8031 4.04L89.2384 3.21469L88.0205 4.04803L89.2459 4.87036L89.8031 4.04ZM101.083 24.68L100.089 24.7895L100.187 25.68H101.083V24.68ZM125.963 24.68H126.963V23.68H125.963V24.68ZM125.963 57V58H126.963V57H125.963ZM121.963 57H120.963V58H121.963V57ZM121.963 40.76H122.963L120.985 40.5514L121.963 40.76ZM88.6831 54.68L89.1834 53.8141L88.6775 53.5218L88.1744 53.8191L88.6831 54.68ZM87.5631 54.04L88.1081 54.8784L89.4036 54.0364L88.1048 53.1994L87.5631 54.04ZM87.5631 4.12L88.0987 4.96451L89.3727 4.15655L88.1323 3.29781L87.5631 4.12ZM89.5631 52.44L88.9427 53.2243L89.6034 53.7469L90.2307 53.1846L89.5631 52.44ZM88.6831 4.84L89.3137 4.06389L88.6781 3.54748L88.0466 4.06878L88.6831 4.84ZM90.8431 53.32L90.2544 52.5117L89.1014 53.3515L90.284 54.1491L90.8431 53.32ZM121.963 25.48H122.963V24.48H121.963V25.48ZM101.163 25.48V24.48H100.099L100.165 25.5424L101.163 25.48ZM76.5231 56.8C69.3872 56.8 63.3841 54.1263 59.1563 49.4309C54.921 44.7272 52.4031 37.9206 52.4031 29.56H50.4031C50.4031 38.3194 53.0452 45.6328 57.67 50.7691C62.3022 55.9137 68.859 58.8 76.5231 58.8V56.8ZM52.4031 29.56C52.4031 20.7062 54.9286 13.6172 59.1668 8.75724C63.3948 3.90885 69.3932 1.2 76.5231 1.2V-0.800003C68.8531 -0.800003 62.2914 2.13114 57.6594 7.44275C53.0376 12.7428 50.4031 20.3338 50.4031 29.56H52.4031ZM76.5231 1.2C80.9172 1.2 84.8993 2.27839 88.2544 4.26092L89.2719 2.53907C85.5869 0.361603 81.249 -0.800003 76.5231 -0.800003V1.2ZM89.2534 4.27157C92.9097 2.21493 97.131 1.36 101.403 1.36V-0.64C96.8752 -0.64 92.2966 0.265069 88.2729 2.52842L89.2534 4.27157ZM101.403 1.36C106.453 1.36 110.621 2.82497 113.502 4.93657C116.399 7.05971 117.923 9.77006 117.923 12.28H119.923C119.923 8.94994 117.927 5.70029 114.684 3.32343C111.425 0.935032 106.833 -0.64 101.403 -0.64V1.36ZM117.923 12.28C117.923 13.2094 117.661 13.7321 117.379 14.0198C117.095 14.3095 116.674 14.48 116.123 14.48V16.48C117.092 16.48 118.071 16.1705 118.807 15.4202C119.545 14.6679 119.923 13.5906 119.923 12.28H117.923ZM116.123 14.48C115.948 14.48 115.749 14.4357 115.406 14.3499L114.921 16.2901C115.217 16.3643 115.659 16.48 116.123 16.48V14.48ZM116.163 15.32C116.163 6.32772 109.275 0.0799952 100.603 0.0799952V2.08C108.252 2.08 114.163 7.51227 114.163 15.32H116.163ZM100.603 0.0799952C96.3823 0.0799952 92.4887 0.990865 89.2384 3.21469L90.3678 4.8653C93.1976 2.92913 96.664 2.08 100.603 2.08V0.0799952ZM89.2459 4.87036C95.0377 8.75695 99.0752 15.5859 100.089 24.7895L102.077 24.5705C101.011 14.8941 96.7286 7.48305 90.3603 3.20963L89.2459 4.87036ZM101.083 25.68H125.963V23.68H101.083V25.68ZM124.963 24.68V57H126.963V24.68H124.963ZM125.963 56H121.963V58H125.963V56ZM122.963 57V40.76H120.963V57H122.963ZM120.985 40.5514C119.747 46.3546 117.139 50.3915 113.746 52.9856C110.345 55.5858 106.072 56.8 101.403 56.8V58.8C106.415 58.8 111.141 57.4942 114.96 54.5744C118.788 51.6485 121.619 47.1654 122.941 40.9686L120.985 40.5514ZM101.403 56.8C96.668 56.8 92.6067 55.7921 89.1834 53.8141L88.1829 55.5459C91.9595 57.7279 96.3782 58.8 101.403 58.8V56.8ZM88.1744 53.8191C84.8271 55.797 80.927 56.8 76.5231 56.8V58.8C81.2392 58.8 85.4992 57.7229 89.1919 55.5409L88.1744 53.8191ZM76.5231 58C80.7461 58 84.7082 57.0884 88.1081 54.8784L87.0181 53.2016C84.0181 55.1516 80.4602 56 76.5231 56V58ZM88.1048 53.1994C81.2684 48.7937 77.2831 40.5245 77.2831 29.56H75.2831C75.2831 40.9955 79.4579 50.0063 87.0214 54.8806L88.1048 53.1994ZM77.2831 29.56C77.2831 16.4536 81.8957 8.8981 88.0987 4.96451L87.0276 3.27549C80.1105 7.6619 75.2831 15.9464 75.2831 29.56H77.2831ZM88.1323 3.29781C84.807 0.995652 80.7547 -3.8147e-06 76.5231 -3.8147e-06V2C80.4516 2 84.0793 2.92434 86.9939 4.94219L88.1323 3.29781ZM76.5231 -3.8147e-06C70.5031 -3.8147e-06 64.9721 1.91856 60.9687 6.66528C56.9888 11.3841 54.6431 18.7525 54.6431 29.4H56.6431C56.6431 19.0075 58.9374 12.1759 62.4976 7.95471C66.0342 3.76143 70.9432 2 76.5231 2V-3.8147e-06ZM54.6431 29.4C54.6431 39.734 56.9918 46.9061 60.9774 51.5049C64.9829 56.1266 70.5107 58 76.5231 58V56C70.9356 56 66.0234 54.2734 62.4888 50.1951C58.9344 46.0939 56.6431 39.466 56.6431 29.4H54.6431ZM79.5231 29.4C79.5231 40.979 83.2823 48.7466 88.9427 53.2243L90.1835 51.6557C85.124 47.6534 81.5231 40.541 81.5231 29.4H79.5231ZM90.2307 53.1846C95.1704 48.7559 98.0831 41.0591 98.0831 29.4H96.0831C96.0831 40.7809 93.2359 47.8041 88.8956 51.6954L90.2307 53.1846ZM98.0831 29.4C98.0831 16.5359 94.7668 8.49451 89.3137 4.06389L88.0525 5.61611C92.8395 9.50548 96.0831 16.8241 96.0831 29.4H98.0831ZM88.0466 4.06878C82.6716 8.50526 79.5231 16.5512 79.5231 29.4H81.5231C81.5231 16.8088 84.6147 9.49474 89.3197 5.61122L88.0466 4.06878ZM90.284 54.1491C93.9149 56.5978 98.1173 57.68 102.523 57.68V55.68C98.449 55.68 94.6514 54.6822 91.4023 52.4909L90.284 54.1491ZM102.523 57.68C107.858 57.68 113.006 55.9667 116.815 51.8819C120.618 47.8026 122.963 41.4878 122.963 32.52H120.963C120.963 41.1522 118.709 46.9174 115.352 50.5181C112 54.1133 107.429 55.68 102.523 55.68V57.68ZM122.963 32.52V25.48H120.963V32.52H122.963ZM121.963 24.48H101.163V26.48H121.963V24.48ZM100.165 25.5424C100.245 26.8223 100.323 28.1544 100.323 29.56H102.323C102.323 28.0856 102.241 26.6977 102.161 25.4176L100.165 25.5424ZM100.323 29.56C100.323 39.9548 96.4212 48.0198 90.2544 52.5117L91.4319 54.1283C98.2251 49.1802 102.323 40.4452 102.323 29.56H100.323ZM169.011 2.04L169.355 1.10112L169.189 1.04H169.011V2.04ZM137.091 2.04V1.04L136.806 2.99853L137.091 2.04ZM142.131 29.4H141.131V30.4H142.131V29.4ZM154.291 29.4V30.4H154.399L154.504 30.3772L154.291 29.4ZM158.131 25.64L159.101 25.8825L159.114 25.8325L159.121 25.7814L158.131 25.64ZM158.131 33.64L159.121 33.4986L159.114 33.4475L159.101 33.3975L158.131 33.64ZM154.291 29.88L154.504 28.9028L154.399 28.88H154.291V29.88ZM142.131 29.88V28.88H141.131V29.88H142.131ZM145.171 56.52L144.777 57.4391L144.816 57.4555L144.855 57.4687L145.171 56.52ZM169.011 56.6V57.6H169.189L169.355 57.5389L169.011 56.6ZM172.291 57V58H173.291V57H172.291ZM172.291 1.64H173.291V0.639997H172.291V1.64ZM173.291 7.72C173.291 6.29983 173.056 4.92274 172.435 3.75128C171.8 2.55551 170.789 1.62681 169.355 1.10112L168.667 2.97887C169.633 3.33318 170.262 3.92448 170.668 4.68871C171.086 5.47725 171.291 6.50016 171.291 7.72H173.291ZM169.011 1.04H137.091V3.04H169.011V1.04ZM136.806 2.99853C139.505 3.801 141.131 5.67227 141.131 7.72H143.131C143.131 4.48772 140.597 2.03899 137.376 1.08146L136.806 2.99853ZM141.131 7.72V29.4H143.131V7.72H141.131ZM142.131 30.4H154.291V28.4H142.131V30.4ZM154.504 30.3772C155.561 30.1474 156.554 29.699 157.37 28.9444C158.19 28.1861 158.78 27.1669 159.101 25.8825L157.161 25.3975C156.922 26.3531 156.512 27.0139 156.013 27.4756C155.509 27.941 154.862 28.2526 154.079 28.4228L154.504 30.3772ZM159.121 25.7814C159.201 25.2203 159.291 24.5979 159.291 23.8H157.291C157.291 24.4421 157.221 24.9397 157.141 25.4986L159.121 25.7814ZM157.291 23.8V35.48H159.291V23.8H157.291ZM159.291 35.48C159.291 34.7647 159.202 34.0656 159.121 33.4986L157.141 33.7814C157.22 34.3344 157.291 34.9153 157.291 35.48H159.291ZM159.101 33.3975C158.78 32.1131 158.19 31.0939 157.37 30.3356C156.554 29.581 155.561 29.1326 154.504 28.9028L154.079 30.8572C154.862 31.0274 155.509 31.339 156.013 31.8044C156.512 32.2661 156.922 32.9269 157.161 33.8825L159.101 33.3975ZM154.291 28.88H142.131V30.88H154.291V28.88ZM141.131 29.88V50.92H143.131V29.88H141.131ZM141.131 50.92C141.131 53.585 142.006 56.2514 144.777 57.4391L145.565 55.6009C143.857 54.8686 143.131 53.215 143.131 50.92H141.131ZM144.855 57.4687C145.267 57.6062 145.579 57.6 145.891 57.6V55.6C145.717 55.6 145.647 55.5991 145.592 55.5941C145.559 55.5911 145.534 55.587 145.487 55.5713L144.855 57.4687ZM145.891 57.6H169.011V55.6H145.891V57.6ZM169.355 57.5389C170.789 57.0132 171.8 56.0845 172.435 54.8887C173.056 53.7173 173.291 52.3402 173.291 50.92H171.291C171.291 52.1398 171.086 53.1627 170.668 53.9513C170.262 54.7155 169.633 55.3068 168.667 55.6611L169.355 57.5389ZM171.291 50.92V57H173.291V50.92H171.291ZM172.291 56H166.451V58H172.291V56ZM166.451 58H166.531V56H166.451V58ZM166.531 56H140.131V58H166.531V56ZM140.131 56C138.13 56 136.347 55.3803 135.086 54.4233C133.825 53.4667 133.131 52.2187 133.131 50.92H131.131C131.131 52.9813 132.238 54.7733 133.877 56.0167C135.515 57.2597 137.732 58 140.131 58V56ZM133.131 50.92V7.72H131.131V50.92H133.131ZM133.131 7.72C133.131 5.92029 132.749 4.133 131.632 2.78257C130.485 1.3967 128.708 0.639997 126.291 0.639997V2.64C128.275 2.64 129.417 3.24329 130.091 4.05742C130.794 4.90699 131.131 6.1597 131.131 7.72H133.131ZM126.291 2.64H134.131V0.639997H126.291V2.64ZM134.131 2.64H172.291V0.639997H134.131V2.64ZM171.291 1.64V7.72H173.291V1.64H171.291ZM172.854 1.64V0.639997H171.854V1.64H172.854ZM223.014 1.64H224.014V0.639997H223.014V1.64ZM219.734 2.04L220.078 1.10112L219.911 1.04H219.734V2.04ZM202.934 2.04V1.04H201.934V2.04H202.934ZM176.134 2.04V1.04H175.956L175.789 1.10112L176.134 2.04ZM172.854 2.64H223.014V0.639997H172.854V2.64ZM222.014 1.64V7.72H224.014V1.64H222.014ZM224.014 7.72C224.014 6.29983 223.779 4.92274 223.157 3.75128C222.523 2.55551 221.512 1.62681 220.078 1.10112L219.389 2.97887C220.356 3.33318 220.985 3.92448 221.39 4.68871C221.809 5.47725 222.014 6.50016 222.014 7.72H224.014ZM219.734 1.04H202.934V3.04H219.734V1.04ZM201.934 2.04V50.92H203.934V2.04H201.934ZM201.934 50.92C201.934 52.7197 202.316 54.507 203.433 55.8574C204.58 57.2433 206.357 58 208.774 58V56C206.79 56 205.648 55.3967 204.974 54.5826C204.271 53.733 203.934 52.4803 203.934 50.92H201.934ZM208.774 56H200.934V58H208.774V56ZM200.934 56C198.933 56 197.15 55.3803 195.888 54.4233C194.627 53.4667 193.934 52.2187 193.934 50.92H191.934C191.934 52.9813 193.04 54.7733 194.679 56.0167C196.318 57.2597 198.535 58 200.934 58V56ZM193.934 50.92V8.12H191.934V50.92H193.934ZM193.934 8.12C193.934 6.32029 193.551 4.533 192.434 3.18257C191.288 1.7967 189.51 1.04 187.094 1.04V3.04C189.077 3.04 190.22 3.64329 190.893 4.45742C191.596 5.30699 191.934 6.55971 191.934 8.12H193.934ZM187.094 1.04H176.134V3.04H187.094V1.04ZM175.789 1.10112C174.356 1.62681 173.345 2.55551 172.71 3.75128C172.089 4.92274 171.854 6.29983 171.854 7.72H173.854C173.854 6.50016 174.059 5.47725 174.477 4.68871C174.883 3.92448 175.512 3.33318 176.478 2.97887L175.789 1.10112ZM173.854 7.72V1.64H171.854V7.72H173.854ZM247.539 20.92C247.539 23.5737 248.554 25.9741 249.987 27.7154C251.397 29.4288 253.334 30.64 255.259 30.64V28.64C254.145 28.64 252.722 27.8912 251.532 26.4446C250.364 25.0259 249.539 23.0663 249.539 20.92H247.539ZM255.259 28.64C253.334 28.64 251.397 29.8512 249.987 31.5646C248.554 33.3059 247.539 35.7063 247.539 38.36H249.539C249.539 36.2137 250.364 34.2541 251.532 32.8354C252.722 31.3888 254.145 30.64 255.259 30.64V28.64ZM249.539 38.36C249.539 35.7064 248.524 33.3074 247.104 31.5676C245.709 29.8587 243.792 28.64 241.899 28.64V30.64C242.967 30.64 244.37 31.3813 245.555 32.8324C246.714 34.2526 247.539 36.2136 247.539 38.36H249.539ZM241.899 30.64C243.792 30.64 245.709 29.4213 247.104 27.7124C248.524 25.9726 249.539 23.5735 249.539 20.92H247.539C247.539 23.0664 246.714 25.0274 245.555 26.4476C244.37 27.8987 242.967 28.64 241.899 28.64V30.64ZM237.459 50.92C237.459 52.7197 237.842 54.507 238.959 55.8574C240.105 57.2433 241.883 58 244.299 58V56C242.316 56 241.173 55.3967 240.5 54.5826C239.797 53.733 239.459 52.4803 239.459 50.92H237.459ZM244.299 56H236.459V58H244.299V56ZM236.459 56C234.458 56 232.675 55.3803 231.414 54.4233C230.153 53.4667 229.459 52.2187 229.459 50.92H227.459C227.459 52.9813 228.566 54.7733 230.205 56.0167C231.844 57.2597 234.06 58 236.459 58V56ZM229.459 50.92V7.72H227.459V50.92H229.459ZM229.459 7.72C229.459 5.92029 229.077 4.133 227.96 2.78257C226.813 1.3967 225.036 0.639997 222.619 0.639997V2.64C224.603 2.64 225.745 3.24329 226.419 4.05742C227.122 4.90699 227.459 6.1597 227.459 7.72H229.459ZM222.619 2.64H230.459V0.639997H222.619V2.64ZM230.459 2.64C232.46 2.64 234.244 3.25974 235.505 4.21669C236.766 5.17326 237.459 6.42131 237.459 7.72H239.459C239.459 5.65868 238.353 3.86674 236.714 2.62331C235.075 1.38025 232.858 0.639997 230.459 0.639997V2.64ZM237.459 7.72V50.92H239.459V7.72H237.459ZM267.619 50.92C267.619 52.7089 267.977 54.4987 269.085 55.8532C270.225 57.2464 272.008 58 274.459 58V56C272.43 56 271.293 55.3936 270.633 54.5868C269.942 53.7413 269.619 52.4911 269.619 50.92H267.619ZM274.459 56H266.619V58H274.459V56ZM266.619 56C264.575 56 262.771 55.3782 261.501 54.4213C260.232 53.4651 259.539 52.2179 259.539 50.92H257.539C257.539 52.9821 258.647 54.7749 260.298 56.0187C261.948 57.2618 264.184 58 266.619 58V56ZM259.539 50.92V7.72H257.539V50.92H259.539ZM259.539 7.72C259.539 5.92029 259.157 4.133 258.04 2.78257C256.893 1.3967 255.116 0.639997 252.699 0.639997V2.64C254.683 2.64 255.825 3.24329 256.499 4.05742C257.202 4.90699 257.539 6.1597 257.539 7.72H259.539ZM252.699 2.64H260.539V0.639997H252.699V2.64ZM260.539 2.64C262.584 2.64 264.388 3.26183 265.658 4.21868C266.927 5.17487 267.619 6.42208 267.619 7.72H269.619C269.619 5.65791 268.512 3.86513 266.861 2.62131C265.211 1.37816 262.975 0.639997 260.539 0.639997V2.64ZM267.619 7.72V50.92H269.619V7.72H267.619ZM314.246 2.04L314.59 1.10112L314.423 1.04H314.246V2.04ZM282.326 2.04V1.04L282.041 2.99853L282.326 2.04ZM287.366 29.4H286.366V30.4H287.366V29.4ZM299.526 29.4V30.4H299.633L299.738 30.3772L299.526 29.4ZM303.366 25.64L304.336 25.8825L304.348 25.8325L304.356 25.7814L303.366 25.64ZM303.366 33.64L304.356 33.4986L304.348 33.4475L304.336 33.3975L303.366 33.64ZM299.526 29.88L299.738 28.9028L299.633 28.88H299.526V29.88ZM287.366 29.88V28.88H286.366V29.88H287.366ZM290.406 56.52L290.012 57.4391L290.05 57.4555L290.089 57.4687L290.406 56.52ZM314.246 56.6V57.6H314.423L314.59 57.5389L314.246 56.6ZM317.526 57V58H318.526V57H317.526ZM317.526 1.64H318.526V0.639997H317.526V1.64ZM318.526 7.72C318.526 6.29983 318.291 4.92274 317.669 3.75128C317.034 2.55551 316.024 1.62681 314.59 1.10112L313.901 2.97887C314.868 3.33318 315.497 3.92448 315.902 4.68871C316.321 5.47725 316.526 6.50016 316.526 7.72H318.526ZM314.246 1.04H282.326V3.04H314.246V1.04ZM282.041 2.99853C284.74 3.801 286.366 5.67227 286.366 7.72H288.366C288.366 4.48772 285.831 2.03899 282.611 1.08146L282.041 2.99853ZM286.366 7.72V29.4H288.366V7.72H286.366ZM287.366 30.4H299.526V28.4H287.366V30.4ZM299.738 30.3772C300.795 30.1474 301.788 29.699 302.604 28.9444C303.425 28.1861 304.015 27.1669 304.336 25.8825L302.395 25.3975C302.157 26.3531 301.746 27.0139 301.247 27.4756C300.743 27.941 300.096 28.2526 299.313 28.4228L299.738 30.3772ZM304.356 25.7814C304.436 25.2203 304.526 24.5979 304.526 23.8H302.526C302.526 24.4421 302.456 24.9397 302.376 25.4986L304.356 25.7814ZM302.526 23.8V35.48H304.526V23.8H302.526ZM304.526 35.48C304.526 34.7647 304.437 34.0656 304.356 33.4986L302.376 33.7814C302.455 34.3344 302.526 34.9153 302.526 35.48H304.526ZM304.336 33.3975C304.015 32.1131 303.425 31.0939 302.604 30.3356C301.788 29.581 300.795 29.1326 299.738 28.9028L299.313 30.8572C300.096 31.0274 300.743 31.339 301.247 31.8044C301.746 32.2661 302.157 32.9269 302.395 33.8825L304.336 33.3975ZM299.526 28.88H287.366V30.88H299.526V28.88ZM286.366 29.88V50.92H288.366V29.88H286.366ZM286.366 50.92C286.366 53.585 287.24 56.2514 290.012 57.4391L290.8 55.6009C289.091 54.8686 288.366 53.215 288.366 50.92H286.366ZM290.089 57.4687C290.502 57.6062 290.813 57.6 291.126 57.6V55.6C290.952 55.6 290.882 55.5991 290.826 55.5941C290.793 55.5911 290.769 55.587 290.722 55.5713L290.089 57.4687ZM291.126 57.6H314.246V55.6H291.126V57.6ZM314.59 57.5389C316.024 57.0132 317.034 56.0845 317.669 54.8887C318.291 53.7173 318.526 52.3402 318.526 50.92H316.526C316.526 52.1398 316.321 53.1627 315.902 53.9513C315.497 54.7155 314.868 55.3068 313.901 55.6611L314.59 57.5389ZM316.526 50.92V57H318.526V50.92H316.526ZM317.526 56H311.686V58H317.526V56ZM311.686 58H311.766V56H311.686V58ZM311.766 56H285.366V58H311.766V56ZM285.366 56C283.365 56 281.581 55.3803 280.32 54.4233C279.059 53.4667 278.366 52.2187 278.366 50.92H276.366C276.366 52.9813 277.472 54.7733 279.111 56.0167C280.75 57.2597 282.967 58 285.366 58V56ZM278.366 50.92V7.72H276.366V50.92H278.366ZM278.366 7.72C278.366 5.92029 277.983 4.133 276.866 2.78257C275.72 1.3967 273.942 0.639997 271.526 0.639997V2.64C273.509 2.64 274.652 3.24329 275.325 4.05742C276.028 4.90699 276.366 6.1597 276.366 7.72H278.366ZM271.526 2.64H279.366V0.639997H271.526V2.64ZM279.366 2.64H317.526V0.639997H279.366V2.64ZM316.526 1.64V7.72H318.526V1.64H316.526ZM350.808 36.04L351.152 35.1011L350.986 35.04H350.808V36.04ZM344.648 36.04H343.648V37.04H344.648V36.04ZM344.648 35.96H345.648V34.96H344.648V35.96ZM333.928 31.8H332.928V32.1409L333.136 32.4108L333.928 31.8ZM333.928 31.64L334.246 30.6918L332.928 30.2502V31.64H333.928ZM351.848 20.6L352.832 20.7763L352.835 20.7615L352.837 20.7465L351.848 20.6ZM342.408 2.12L342.092 3.06868L342.14 3.0847L342.189 3.09579L342.408 2.12ZM328.888 2.04V1.04L328.603 2.99853L328.888 2.04ZM355.368 3.56L355.845 2.68103L355.842 2.67953L355.368 3.56ZM363.608 22.84L362.629 22.6356L362.627 22.645L362.626 22.6544L363.608 22.84ZM348.808 35.56L348.623 34.5773L348.808 36.56V35.56ZM356.088 35.56L356.106 34.5602L356.097 34.56H356.088V35.56ZM363.088 50.92C363.088 52.7089 363.446 54.4987 364.554 55.8532C365.694 57.2464 367.477 58 369.928 58V56C367.899 56 366.762 55.3936 366.102 54.5868C365.41 53.7413 365.088 52.4911 365.088 50.92H363.088ZM369.928 56H362.088V58H369.928V56ZM362.088 56C360.044 56 358.24 55.3782 356.97 54.4213C355.701 53.4651 355.008 52.2179 355.008 50.92H353.008C353.008 52.9821 354.116 54.7749 355.766 56.0187C357.416 57.2618 359.653 58 362.088 58V56ZM355.008 50.92V41.64H353.008V50.92H355.008ZM355.008 41.64C355.008 40.2683 354.796 38.9134 354.197 37.7518C353.584 36.5627 352.592 35.6289 351.152 35.1011L350.464 36.9789C351.425 37.3311 352.032 37.9173 352.419 38.6682C352.82 39.4466 353.008 40.4517 353.008 41.64H355.008ZM350.808 35.04H344.648V37.04H350.808V35.04ZM345.648 36.04V35.96H343.648V36.04H345.648ZM344.648 34.96C340.315 34.96 336.609 33.6384 334.72 31.1892L333.136 32.4108C335.567 35.5616 340.021 36.96 344.648 36.96V34.96ZM334.928 31.8V31.64H332.928V31.8H334.928ZM333.928 31.64C333.61 32.5882 333.611 32.5884 333.612 32.5886C333.612 32.5886 333.612 32.5889 333.613 32.589C333.614 32.5894 333.615 32.5898 333.617 32.5904C333.62 32.5914 333.624 32.5927 333.629 32.5943C333.639 32.5975 333.652 32.6019 333.669 32.6073C333.703 32.618 333.751 32.6329 333.813 32.6511C333.935 32.6876 334.111 32.7374 334.333 32.7941C334.776 32.9073 335.408 33.0486 336.173 33.1649C337.696 33.3966 339.784 33.5349 341.987 33.1338C344.198 32.7313 346.547 31.7805 348.535 29.821C350.525 27.8598 352.084 24.9579 352.832 20.7763L350.864 20.4237C350.173 24.2821 348.771 26.7802 347.131 28.3965C345.489 30.0145 343.538 30.8187 341.629 31.1662C339.712 31.5151 337.86 31.3984 336.473 31.1876C335.784 31.0827 335.217 30.9558 334.827 30.8562C334.632 30.8065 334.482 30.7637 334.383 30.7342C334.333 30.7195 334.297 30.708 334.273 30.7007C334.262 30.697 334.254 30.6944 334.249 30.6929C334.247 30.6921 334.245 30.6916 334.245 30.6915C334.245 30.6914 334.244 30.6914 334.245 30.6914C334.245 30.6914 334.245 30.6915 334.245 30.6916C334.245 30.6917 334.246 30.6918 333.928 31.64ZM352.837 20.7465C352.934 20.0934 352.957 18.7088 352.809 17.0073C352.66 15.2847 352.33 13.1663 351.685 11.0399C350.412 6.83906 347.805 2.30492 342.627 1.14421L342.189 3.09579C346.291 4.01508 348.565 7.64094 349.771 11.6201C350.366 13.5837 350.676 15.5603 350.817 17.1802C350.959 18.8212 350.922 20.0266 350.859 20.4535L352.837 20.7465ZM342.724 1.17131C342.312 1.03384 341.92 1.04 341.768 1.04V3.04C341.85 3.04 341.908 3.04049 341.968 3.04589C342.025 3.05113 342.065 3.05976 342.092 3.06868L342.724 1.17131ZM341.768 1.04H328.888V3.04H341.768V1.04ZM328.603 2.99853C331.293 3.79832 332.928 5.74497 332.928 7.72H334.928C334.928 4.57503 332.403 2.04168 329.173 1.08146L328.603 2.99853ZM332.928 7.72V50.92H334.928V7.72H332.928ZM332.928 50.92C332.928 52.7197 333.31 54.507 334.428 55.8574C335.574 57.2433 337.352 58 339.768 58V56C337.785 56 336.642 55.3967 335.969 54.5826C335.266 53.733 334.928 52.4803 334.928 50.92H332.928ZM339.768 56H331.928V58H339.768V56ZM331.928 56C329.927 56 328.144 55.3803 326.883 54.4233C325.622 53.4667 324.928 52.2187 324.928 50.92H322.928C322.928 52.9813 324.035 54.7733 325.674 56.0167C327.312 57.2597 329.529 58 331.928 58V56ZM324.928 50.92V7.72H322.928V50.92H324.928ZM324.928 7.72C324.928 5.92029 324.546 4.133 323.429 2.78257C322.282 1.3967 320.505 0.639997 318.088 0.639997V2.64C320.072 2.64 321.214 3.24329 321.888 4.05742C322.59 4.90699 322.928 6.1597 322.928 7.72H324.928ZM318.088 2.64H342.408V0.639997H318.088V2.64ZM342.408 2.64C344.96 2.64 347.37 2.7003 349.517 2.96262C351.671 3.22577 353.491 3.68487 354.894 4.44047L355.842 2.67953C354.125 1.75512 352.025 1.25423 349.759 0.977378C347.487 0.699695 344.977 0.639997 342.408 0.639997V2.64ZM354.891 4.43896C361.931 8.25826 364.082 15.6756 362.629 22.6356L364.587 23.0444C366.174 15.4444 363.846 7.02173 355.845 2.68103L354.891 4.43896ZM362.626 22.6544C361.374 29.282 355.217 33.336 348.623 34.5773L348.993 36.5427C355.999 35.224 363.123 30.798 364.591 23.0256L362.626 22.6544ZM348.808 36.56H356.088V34.56H348.808V36.56ZM356.07 36.5598C358.077 36.5963 359.867 37.2357 361.134 38.1967C362.402 39.1591 363.088 40.3892 363.088 41.64H365.088C365.088 39.6108 363.974 37.8409 362.342 36.6033C360.709 35.3643 358.5 34.6037 356.106 34.5602L356.07 36.5598ZM363.088 41.64V50.92H365.088V41.64H363.088Z" fill="#282121"/>
</svg>
