<svg width="731" height="57" viewBox="0 0 731 57" fill="none" xmlns="http://www.w3.org/2000/svg">
<path d="M36.0123 9.856H36.3003L29.9163 34H24.2523C24.2523 30.976 22.4763 27.904 20.3163 24.784L17.8683 34H12.2043C12.2043 26.08 0.156313 17.584 0.156313 9.808H6.15631C6.44431 14.224 16.7643 24.688 18.0603 32.464L20.1723 24.544C16.6683 19.552 12.2043 14.56 12.2043 9.808H18.2043C18.3003 11.536 19.9803 14.224 22.0443 17.296L24.0123 9.856H24.2523L22.1883 17.536C25.3563 22.24 29.3403 27.856 30.1083 32.464L36.0123 9.856ZM53.3223 33.232C55.5783 32.464 56.4423 28.768 55.7223 24.256L60.2343 26.128C58.6023 30.736 54.3303 34 49.3383 34C42.9063 34 37.6743 28.624 37.6743 21.952C37.6743 21.232 37.7703 20.512 37.8663 19.84H37.8183V19.552H37.9143C38.9703 14.032 43.6743 9.856 49.3383 9.856C55.0983 9.856 59.8503 14.128 60.8103 19.84H43.2423C43.4823 21.04 43.7703 22.336 44.2503 23.632C46.3623 29.92 50.4423 34.192 53.3223 33.232ZM45.5943 10.528C43.3383 11.296 42.4743 14.992 43.2423 19.552H54.4743C52.3143 13.6 48.3783 9.568 45.5943 10.528ZM96.0817 24.256L100.594 26.128C98.9617 30.736 94.6897 34 89.6977 34C83.2657 34 78.0337 28.624 78.0337 21.952C78.0337 15.232 83.2657 9.856 89.6977 9.856C94.6417 9.856 98.8657 13.072 100.546 17.584H94.0657C91.8097 12.736 88.4497 9.664 85.9537 10.528C83.0737 11.488 82.4497 17.392 84.6097 23.632C86.7217 29.92 90.8017 34.192 93.6817 33.232C95.9377 32.464 96.8017 28.768 96.0817 24.256ZM124.05 30.352C124.05 32.368 124.914 34 127.554 34H122.85C120.21 34 118.05 32.368 118.05 30.352V17.632C118.05 17.632 108.402 18.208 109.026 26.944C109.41 33.424 118.05 30.352 118.05 30.352V30.448C117.234 31.36 104.658 39.568 103.074 27.616C102.114 20.32 113.682 16.624 118.05 17.584V13.504C118.05 13.168 118.002 12.88 117.954 12.544C117.09 8.896 109.458 7.744 108.018 17.584H102.978C103.122 16.24 106.002 9.808 113.106 9.808L118.05 9.856H119.25C121.89 9.856 124.05 11.488 124.05 13.504V30.352ZM152.674 30.352C152.674 32.368 153.538 34 156.178 34H151.474C148.786 34 146.674 32.368 146.674 30.352V16.864C146.386 9.856 136.738 14.032 136.066 21.952V30.352C136.066 32.368 136.882 34 139.57 34H134.866C132.178 34 130.018 32.368 130.018 30.352V13.504C130.018 11.488 129.202 9.856 126.514 9.856H131.218C133.906 9.856 136.066 11.488 136.066 13.504V21.376C136.066 10.624 152.05 4.096 152.674 16.864V30.352ZM189.691 24.256L194.203 26.128C192.571 30.736 188.299 34 183.307 34C176.875 34 171.643 28.624 171.643 21.952C171.643 15.232 176.875 9.856 183.307 9.856C188.251 9.856 192.475 13.072 194.155 17.584H187.675C185.419 12.736 182.059 9.664 179.563 10.528C176.683 11.488 176.059 17.392 178.219 23.632C180.331 29.92 184.411 34.192 187.291 33.232C189.547 32.464 190.411 28.768 189.691 24.256ZM204.035 21.376C204.035 10.672 220.019 4.096 220.643 16.864H214.643C214.355 9.856 204.707 14.032 204.035 21.952V21.376ZM204.035 30.352C204.035 32.368 204.851 34 207.539 34H202.835C200.147 34 197.987 32.368 197.987 30.352V13.504C197.987 11.488 197.171 9.856 194.483 9.856H199.187C201.875 9.856 204.035 11.488 204.035 13.504V30.352ZM237.869 33.232C240.125 32.464 240.989 28.768 240.269 24.256L244.781 26.128C243.149 30.736 238.877 34 233.885 34C227.453 34 222.221 28.624 222.221 21.952C222.221 21.232 222.317 20.512 222.413 19.84H222.365V19.552H222.461C223.517 14.032 228.221 9.856 233.885 9.856C239.645 9.856 244.397 14.128 245.357 19.84H227.789C228.029 21.04 228.317 22.336 228.797 23.632C230.909 29.92 234.989 34.192 237.869 33.232ZM230.141 10.528C227.885 11.296 227.021 14.992 227.789 19.552H239.021C236.861 13.6 232.925 9.568 230.141 10.528ZM268.847 30.352C268.847 32.368 269.711 34 272.351 34H267.647C265.007 34 262.847 32.368 262.847 30.352V17.632C262.847 17.632 253.199 18.208 253.823 26.944C254.207 33.424 262.847 30.352 262.847 30.352V30.448C262.031 31.36 249.455 39.568 247.871 27.616C246.911 20.32 258.479 16.624 262.847 17.584V13.504C262.847 13.168 262.799 12.88 262.751 12.544C261.887 8.896 254.255 7.744 252.815 17.584H247.775C247.919 16.24 250.799 9.808 257.903 9.808L262.847 9.856H264.047C266.687 9.856 268.847 11.488 268.847 13.504V30.352ZM285.174 10.096H280.614V30.352C280.614 32.368 281.478 34 284.118 34H279.414C276.774 34 274.614 32.368 274.614 30.352V10.096H270.102V9.808H274.614V6.784C274.614 3.472 277.302 0.783998 280.614 0.783998V9.808H285.174V10.096ZM300.447 33.232C302.703 32.464 303.567 28.768 302.847 24.256L307.359 26.128C305.727 30.736 301.455 34 296.463 34C290.031 34 284.799 28.624 284.799 21.952C284.799 21.232 284.895 20.512 284.991 19.84H284.943V19.552H285.039C286.095 14.032 290.799 9.856 296.463 9.856C302.223 9.856 306.975 14.128 307.935 19.84H290.367C290.607 21.04 290.895 22.336 291.375 23.632C293.487 29.92 297.567 34.192 300.447 33.232ZM292.719 10.528C290.463 11.296 289.599 14.992 290.367 19.552H301.599C299.439 13.6 295.503 9.568 292.719 10.528ZM337.975 19.312C346.519 19.36 349.591 23.2 349.639 26.272C349.639 28.816 348.295 31.504 345.799 32.896C345.079 33.328 344.359 33.664 343.543 33.808C342.151 34.096 340.471 34 337.975 34C334.951 34 331.207 34 330.199 33.808C326.839 33.28 324.967 28.72 327.175 24.976L331.735 27.904C331.735 27.904 330.199 28.336 330.151 29.248C330.151 32.128 334.663 34 337.543 33.952C341.239 33.856 343.591 31.648 343.591 29.248C343.591 27.04 341.623 25.456 339.655 24.832C339.463 24.784 339.271 24.736 339.079 24.688C339.079 24.688 339.031 24.688 339.031 24.64C338.359 24.544 337.783 24.544 337.015 24.544C328.471 24.496 325.399 20.656 325.399 17.584C325.351 15.04 326.695 12.304 329.191 10.912C329.911 10.528 330.631 10.192 331.447 10.048C332.839 9.76 334.567 9.856 337.015 9.856C340.039 9.856 343.783 9.856 344.791 10C348.199 10.576 350.023 15.136 347.815 18.88L343.255 15.952C343.255 15.952 344.791 15.52 344.839 14.608C344.839 11.728 340.327 9.856 337.447 9.904C333.751 9.952 331.399 12.208 331.399 14.608C331.399 17.488 334.711 19.312 337.015 19.312C337.351 19.312 337.543 19.312 337.879 19.312C337.879 19.312 337.927 19.312 337.975 19.312ZM363.729 9.856C370.161 9.856 375.393 15.232 375.393 21.952C375.393 28.624 370.161 34 363.729 34C357.297 34 352.065 28.624 352.065 21.952C352.065 15.232 357.297 9.856 363.729 9.856ZM367.713 33.232C370.593 32.224 371.217 26.368 369.057 20.08C366.945 13.792 362.865 9.52 359.985 10.528C357.105 11.488 356.481 17.392 358.641 23.632C360.753 29.92 364.833 34.192 367.713 33.232ZM418.704 30.352C418.704 32.368 419.568 34 422.208 34H417.504C414.864 34 412.704 32.368 412.704 30.352V16.864C412.416 9.856 402.768 14.032 402.096 21.952V30.352C402.096 32.368 402.96 34 405.6 34H400.896C398.208 34 396.096 32.368 396.096 30.352V16.864C395.808 9.856 386.16 14.032 385.488 21.952V30.352C385.488 32.368 386.304 34 388.992 34H384.288C381.6 34 379.44 32.368 379.44 30.352V13.504C379.44 11.488 378.624 9.856 375.936 9.856H380.64C383.328 9.856 385.488 11.488 385.488 13.504V21.376C385.488 10.624 401.472 4.096 402.096 16.864V21.376C402.096 10.624 418.08 4.096 418.704 16.864V30.352ZM438.26 33.232C440.516 32.464 441.38 28.768 440.66 24.256L445.172 26.128C443.54 30.736 439.268 34 434.276 34C427.844 34 422.612 28.624 422.612 21.952C422.612 21.232 422.708 20.512 422.804 19.84H422.756V19.552H422.852C423.908 14.032 428.612 9.856 434.276 9.856C440.036 9.856 444.788 14.128 445.748 19.84H428.18C428.42 21.04 428.708 22.336 429.188 23.632C431.3 29.92 435.38 34.192 438.26 33.232ZM430.532 10.528C428.276 11.296 427.412 14.992 428.18 19.552H439.412C437.252 13.6 433.316 9.568 430.532 10.528ZM460.158 10.096H455.598V30.352C455.598 32.368 456.462 34 459.102 34H454.398C451.758 34 449.598 32.368 449.598 30.352V10.096H445.086V9.808H449.598V6.784C449.598 3.472 452.286 0.783998 455.598 0.783998V9.808H460.158V10.096ZM485.041 30.352C485.041 32.368 485.905 34 488.545 34H483.841C481.153 34 478.993 32.368 478.993 30.352V16.864C478.945 15.568 478.609 14.656 477.985 14.08V14.032C477.841 13.888 477.649 13.792 477.505 13.696C477.409 13.648 477.313 13.6 477.265 13.552C477.073 13.504 476.929 13.456 476.737 13.408C476.689 13.36 476.641 13.36 476.545 13.36C473.569 12.832 468.913 16.528 468.433 21.952V30.352C468.433 32.368 469.297 34 471.937 34H467.233C464.593 34 462.433 32.368 462.433 30.352V4.432C462.433 2.416 461.569 0.783998 458.881 0.783998H463.633C466.273 0.783998 468.433 2.416 468.433 4.432V21.184C468.625 10.576 484.417 4.192 485.041 16.864V30.352ZM495.645 30.352C495.645 32.368 496.461 34 499.149 34H494.445C491.757 34 489.597 32.368 489.597 30.352V13.504C489.597 11.488 488.781 9.856 486.093 9.856H490.797C493.485 9.856 495.645 11.488 495.645 13.504V30.352ZM492.621 8.608C492.621 6.448 490.989 4.672 489.597 4.672C490.989 4.672 492.621 2.944 492.621 0.783998C492.621 2.944 494.253 4.672 495.645 4.672C494.253 4.672 492.621 6.448 492.621 8.608ZM523.174 30.352C523.174 32.368 524.038 34 526.678 34H521.974C519.286 34 517.174 32.368 517.174 30.352V16.864C516.886 9.856 507.238 14.032 506.566 21.952V30.352C506.566 32.368 507.382 34 510.07 34H505.366C502.678 34 500.518 32.368 500.518 30.352V13.504C500.518 11.488 499.702 9.856 497.014 9.856H501.718C504.406 9.856 506.566 11.488 506.566 13.504V21.376C506.566 10.624 522.55 4.096 523.174 16.864V30.352ZM545.193 36.64C552.825 36.832 556.425 46.912 546.633 52.96C540.201 56.944 527.049 55.504 527.049 48.448C527.049 44.176 530.361 41.824 531.225 41.344C527.049 39.808 529.833 32.8 531.417 31.312C528.777 29.104 527.097 25.696 527.097 21.952C527.097 15.232 532.329 9.856 538.761 9.856C541.689 9.856 544.377 10.96 546.441 12.832L550.473 7.888L551.961 9.136L546.633 12.976H546.585C548.937 15.232 550.425 18.4 550.425 21.952C550.425 28.624 545.193 34 538.761 34C536.073 34 533.625 33.088 531.657 31.504C530.073 33.328 528.873 36.448 533.145 36.544C537.273 36.592 539.049 36.496 545.193 36.64ZM544.137 20.08C543.801 19.168 543.417 18.256 543.033 17.392L535.161 27.136C537.417 31.408 540.441 34 542.745 33.232C545.673 32.224 546.249 26.368 544.137 20.08ZM535.017 10.528C532.137 11.488 531.561 17.392 533.673 23.632C534.057 24.784 534.537 25.888 535.017 26.896L542.937 17.152C540.681 12.544 537.417 9.712 535.017 10.528ZM533.193 54.256C537.273 55.552 549.705 55.888 548.313 46C547.785 41.872 545.385 41.632 533.097 41.632C532.521 41.632 531.993 41.536 531.561 41.44C528.537 43.264 527.001 46.432 527.433 48.928C527.913 52.144 530.169 53.344 533.193 54.256ZM590.191 19.648C590.911 25.12 589.807 29.536 586.063 32.608C583.903 34.336 580.255 34.048 576.703 34H574.015C571.375 34 569.215 32.368 569.215 30.352V4.432C569.215 2.416 568.351 0.783998 565.663 0.783998H570.415C573.055 0.783998 575.215 2.416 575.215 4.432V12.976C578.239 7.072 588.847 9.616 590.191 19.648ZM577.039 33.712C584.095 35.392 584.431 23.2 584.239 21.376C582.799 9.328 575.215 13.072 575.215 13.072V30.352C575.215 31.888 575.695 33.184 577.039 33.712ZM600.645 21.376C600.645 10.672 616.629 4.096 617.253 16.864H611.253C610.965 9.856 601.317 14.032 600.645 21.952V21.376ZM600.645 30.352C600.645 32.368 601.461 34 604.149 34H599.445C596.757 34 594.597 32.368 594.597 30.352V13.504C594.597 11.488 593.781 9.856 591.093 9.856H595.797C598.485 9.856 600.645 11.488 600.645 13.504V30.352ZM626.613 30.352C626.613 32.368 627.429 34 630.117 34H625.413C622.725 34 620.565 32.368 620.565 30.352V13.504C620.565 11.488 619.749 9.856 617.061 9.856H621.765C624.453 9.856 626.613 11.488 626.613 13.504V30.352ZM623.589 8.608C623.589 6.448 621.957 4.672 620.565 4.672C621.957 4.672 623.589 2.944 623.589 0.783998C623.589 2.944 625.221 4.672 626.613 4.672C625.221 4.672 623.589 6.448 623.589 8.608ZM637.277 30.352C637.277 32.368 638.141 34 640.781 34H636.077C633.437 34 631.277 32.368 631.277 30.352V4.432C631.277 2.416 630.413 0.783998 627.725 0.783998H632.477C635.117 0.783998 637.277 2.416 637.277 4.432V30.352ZM648.246 30.352C648.246 32.368 649.11 34 651.75 34H647.046C644.406 34 642.246 32.368 642.246 30.352V4.432C642.246 2.416 641.382 0.783998 638.694 0.783998H643.446C646.086 0.783998 648.246 2.416 648.246 4.432V30.352ZM659.895 30.352C659.895 32.368 660.711 34 663.399 34H658.695C656.007 34 653.847 32.368 653.847 30.352V13.504C653.847 11.488 653.031 9.856 650.343 9.856H655.047C657.735 9.856 659.895 11.488 659.895 13.504V30.352ZM656.871 8.608C656.871 6.448 655.239 4.672 653.847 4.672C655.239 4.672 656.871 2.944 656.871 0.783998C656.871 2.944 658.503 4.672 659.895 4.672C658.503 4.672 656.871 6.448 656.871 8.608ZM685.191 30.352C685.191 32.368 686.055 34 688.695 34H683.991C681.351 34 679.191 32.368 679.191 30.352V17.632C679.191 17.632 669.543 18.208 670.167 26.944C670.551 33.424 679.191 30.352 679.191 30.352V30.448C678.375 31.36 665.799 39.568 664.215 27.616C663.255 20.32 674.823 16.624 679.191 17.584V13.504C679.191 13.168 679.143 12.88 679.095 12.544C678.231 8.896 670.599 7.744 669.159 17.584H664.119C664.263 16.24 667.143 9.808 674.247 9.808L679.191 9.856H680.391C683.031 9.856 685.191 11.488 685.191 13.504V30.352ZM713.815 30.352C713.815 32.368 714.679 34 717.319 34H712.615C709.927 34 707.815 32.368 707.815 30.352V16.864C707.527 9.856 697.879 14.032 697.207 21.952V30.352C697.207 32.368 698.023 34 700.711 34H696.007C693.319 34 691.159 32.368 691.159 30.352V13.504C691.159 11.488 690.343 9.856 687.655 9.856H692.359C695.047 9.856 697.207 11.488 697.207 13.504V21.376C697.207 10.624 713.191 4.096 713.815 16.864V30.352ZM730.064 10.096H725.504V30.352C725.504 32.368 726.368 34 729.008 34H724.304C721.664 34 719.504 32.368 719.504 30.352V10.096H714.992V9.808H719.504V6.784C719.504 3.472 722.192 0.783998 725.504 0.783998V9.808H730.064V10.096Z" fill="#3C2D2D"/>
</svg>
