<svg width="1023" height="400" viewBox="0 0 1023 400" fill="none" xmlns="http://www.w3.org/2000/svg">
<path d="M324.974 4.25998C323.454 10.72 322.124 23.26 320.984 41.88C319.844 60.12 319.274 87.86 319.274 125.1V268.17C319.274 305.41 319.844 333.34 320.984 351.96C322.124 370.2 323.454 382.55 324.974 389.01C325.354 391.67 325.354 393 324.974 393H311.294H301.604H287.924C287.544 393 287.544 391.67 287.924 389.01C289.444 382.55 290.774 370.2 291.914 351.96C293.054 333.34 293.624 305.41 293.624 268.17V125.1V27.63L287.924 41.88L258.854 123.39L224.654 216.87L196.154 294.39L191.594 308.07L197.294 322.32C200.334 329.54 203.184 336.95 205.844 344.55C208.504 352.15 210.214 359.94 210.974 367.92C211.354 370.58 211.354 373.24 210.974 375.9C210.974 378.56 210.214 381.03 208.694 383.31C206.794 385.97 204.704 387.87 202.424 389.01C200.144 389.77 197.674 390.34 195.014 390.72C191.974 391.48 188.934 391.67 185.894 391.29C183.234 390.53 180.384 389.96 177.344 389.58C176.964 389.58 176.014 389.39 174.494 389.01C173.354 388.63 172.404 388.25 171.644 387.87C168.984 386.73 167.274 385.21 166.514 383.31C165.374 381.41 164.614 379.13 164.234 376.47C164.234 373.81 164.424 371.34 164.804 369.06C165.564 362.6 167.084 356.52 169.364 350.82C171.644 344.74 174.114 338.85 176.774 333.15C175.634 330.49 174.494 328.02 173.354 325.74C172.594 323.08 171.644 320.23 170.504 317.19L155.114 279.57L59.3542 43.02V78.93V102.87V176.4V261.33V276.72C59.7342 293.82 60.6842 308.83 62.2042 321.75C63.7242 334.29 65.4342 345.12 67.3342 354.24C69.2342 363.36 70.9442 370.77 72.4642 376.47C74.3642 381.79 75.6942 385.97 76.4542 389.01C76.8342 391.67 76.8342 393 76.4542 393H62.7742H53.0842H39.4042C39.0242 393 39.0242 391.67 39.4042 389.01C40.1642 385.97 41.3042 381.6 42.8242 375.9C44.7242 369.82 46.6242 362.03 48.5242 352.53C50.8042 343.03 52.7042 331.63 54.2242 318.33C55.7442 304.65 56.5042 288.69 56.5042 270.45V251.07V166.14V119.97C56.5042 102.11 55.7442 86.72 54.2242 73.8C52.7042 60.5 50.8042 49.29 48.5242 40.17C46.6242 30.67 44.7242 23.07 42.8242 17.37C41.3042 11.67 40.1642 7.29998 39.4042 4.25998C39.0242 1.59999 39.0242 0.269994 39.4042 0.269994H53.0842H59.9242C64.4842 0.269994 67.3342 1.21999 68.4742 3.11999L84.4342 43.59L189.884 303.51L196.154 286.41L225.224 204.9L259.424 111.42L287.924 33.9L293.624 17.94V0.269994C293.624 0.269994 294.764 0.269994 297.044 0.269994C299.324 0.269994 301.984 0.269994 305.024 0.269994C308.444 0.269994 311.864 0.269994 315.284 0.269994C319.084 0.269994 322.314 0.269994 324.974 0.269994C325.354 0.269994 325.354 1.59999 324.974 4.25998ZM176.204 385.59C180.384 383.69 183.044 380.65 184.184 376.47C185.324 371.91 185.514 367.54 184.754 363.36C183.614 355.76 181.524 347.21 178.484 337.71C176.584 342.27 174.684 346.83 172.784 351.39C171.264 355.95 169.934 360.7 168.794 365.64C168.034 369.82 167.844 374 168.224 378.18C168.604 382.36 171.264 384.83 176.204 385.59ZM532 391.86C534.66 392.62 534.66 393.19 532 393.57C529.72 394.33 528.2 394.9 527.44 395.28C524.4 395.66 521.36 395.85 518.32 395.85C515.28 395.85 512.24 395.28 509.2 394.14C504.26 392.24 500.46 389.2 497.8 385.02C495.14 380.84 493.43 376.09 492.67 370.77C491.91 365.45 491.53 360.13 491.53 354.81C491.53 349.11 491.53 343.98 491.53 339.42V277.86V272.16C488.87 284.32 485.83 296.48 482.41 308.64C478.99 320.8 474.81 332.77 469.87 344.55C467.59 349.49 464.93 354.62 461.89 359.94C459.23 365.26 456 370.2 452.2 374.76C448.4 379.32 444.22 383.31 439.66 386.73C435.1 390.15 429.97 392.43 424.27 393.57C408.31 397.37 395.2 396.04 384.94 389.58C374.68 383.12 367.08 372.67 362.14 358.23C356.06 341.13 352.45 323.65 351.31 305.79C350.17 287.55 349.6 269.69 349.6 252.21V239.1V228.27C349.6 210.03 349.22 193.88 348.46 179.82C348.08 165.76 347.7 153.98 347.32 144.48C346.94 140.3 345.99 136.5 344.47 133.08C343.71 131.56 343.14 130.23 342.76 129.09L380.95 102.3C381.33 102.3 381.33 103.63 380.95 106.29C379.43 112.37 378.1 124.15 376.96 141.63C376.2 159.11 375.63 185.52 375.25 220.86V252.21C375.63 268.17 376.2 284.32 376.96 300.66C378.1 317 380.76 333.15 384.94 349.11C386.46 354.43 388.17 359.75 390.07 365.07C392.35 370.01 395.2 374.57 398.62 378.75C401.66 383.31 404.89 386.54 408.31 388.44C411.73 389.96 415.53 390.72 419.71 390.72C425.79 389.96 431.11 388.06 435.67 385.02C440.61 381.98 445.17 378.18 449.35 373.62C453.91 367.54 457.9 361.08 461.32 354.24C464.74 347.4 467.78 340.56 470.44 333.72C473.86 324.98 476.71 316.43 478.99 308.07C481.65 299.33 483.93 290.59 485.83 281.85C486.97 277.67 487.92 273.3 488.68 268.74C489.82 264.18 490.77 259.62 491.53 255.06V218.01C491.53 202.05 491.34 187.99 490.96 175.83C490.58 163.67 490.2 153.22 489.82 144.48C489.44 140.3 488.49 136.5 486.97 133.08C486.21 131.56 485.64 130.23 485.26 129.09L523.45 102.3C523.45 102.3 523.26 103.63 522.88 106.29C521.36 112.37 520.03 125.1 518.89 144.48C518.13 163.48 517.75 191.6 517.75 228.84V277.86C517.75 289.26 517.56 299.33 517.18 308.07C517.18 316.81 517.18 326.69 517.18 337.71C517.18 344.17 517.18 350.82 517.18 357.66C517.56 364.12 518.7 370.58 520.6 377.04C522.5 384.64 526.3 389.58 532 391.86ZM724.86 391.86C727.52 392.62 727.52 393.19 724.86 393.57C722.58 394.33 721.06 394.9 720.3 395.28C717.26 395.66 714.22 395.85 711.18 395.85C708.14 395.85 705.1 395.28 702.06 394.14C697.12 392.24 693.32 389.2 690.66 385.02C688 380.84 686.29 376.09 685.53 370.77C684.77 365.45 684.39 360.13 684.39 354.81C684.39 349.11 684.39 343.98 684.39 339.42V277.86V199.2C684.39 188.56 683.82 177.73 682.68 166.71C681.54 155.69 678.88 145.24 674.7 135.36C671.66 127 667.1 119.78 661.02 113.7C658.36 110.66 655.51 108.76 652.47 108C649.81 106.48 647.53 105.72 645.63 105.72C644.11 105.34 642.21 105.15 639.93 105.15C631.57 106.29 623.97 109.9 617.13 115.98C608.77 123.58 602.12 132.7 597.18 143.34C592.24 153.98 588.06 164.62 584.64 175.26C583.88 177.16 583.31 179.06 582.93 180.96C582.55 182.48 581.98 184.19 581.22 186.09C581.22 192.17 581.03 198.44 580.65 204.9C580.65 210.98 580.65 217.82 580.65 225.42V269.88C580.65 288.5 580.84 304.65 581.22 318.33C581.6 331.63 581.98 343.03 582.36 352.53C583.12 362.03 583.69 369.82 584.07 375.9C584.83 381.6 585.59 385.97 586.35 389.01C586.73 391.67 586.73 393 586.35 393H572.67H562.98H549.3C548.92 393 548.92 391.67 549.3 389.01C550.06 385.97 550.63 381.6 551.01 375.9C551.77 369.82 552.34 362.03 552.72 352.53C553.48 343.03 554.05 331.63 554.43 318.33C554.81 304.65 555 288.5 555 269.88V225.42C555 207.18 554.62 191.6 553.86 178.68C553.48 165.38 553.1 153.98 552.72 144.48C552.34 140.3 551.39 136.5 549.87 133.08C549.11 131.56 548.54 130.23 548.16 129.09L586.35 102.3C586.73 102.3 586.73 103.63 586.35 106.29C585.21 110.85 584.26 118.45 583.5 129.09C582.74 139.73 581.98 154.74 581.22 174.12C583.88 166.52 586.73 159.11 589.77 151.89C592.81 144.67 596.42 137.83 600.6 131.37C606.3 122.25 612.95 114.84 620.55 109.14C628.15 103.44 637.46 100.78 648.48 101.16C654.18 101.16 659.88 101.73 665.58 102.87C671.28 103.63 676.6 105.53 681.54 108.57C685.34 111.23 688.57 114.27 691.23 117.69C693.89 121.11 696.17 124.91 698.07 129.09C703.39 139.73 706.81 151.13 708.33 163.29C709.85 175.45 710.61 187.42 710.61 199.2V211.17V277.86V337.71C710.61 344.17 710.61 350.82 710.61 357.66C710.61 364.12 711.56 370.58 713.46 377.04C715.36 384.64 719.16 389.58 724.86 391.86ZM778.948 106.29C774.388 126.81 772.298 147.9 772.678 169.56C773.058 191.22 773.248 212.31 773.248 232.83V268.17C773.248 305.41 773.628 333.34 774.388 351.96C775.528 370.2 776.858 382.55 778.378 389.01C778.758 391.67 778.948 393 778.948 393H765.268H755.008H741.328C741.328 393 741.518 391.67 741.898 389.01C743.418 382.55 744.558 370.2 745.318 351.96C746.458 333.34 747.028 305.41 747.028 268.17V199.77C747.028 187.99 746.838 177.54 746.458 168.42C746.078 159.3 745.698 151.32 745.318 144.48C744.938 140.3 743.988 136.5 742.468 133.08C741.708 131.56 741.138 130.23 740.758 129.09L778.948 102.3C779.328 102.3 779.328 103.63 778.948 106.29ZM768.118 77.79C763.938 81.21 759.568 83.3 755.008 84.06C750.448 84.44 747.218 83.11 745.318 80.07C743.038 77.03 742.468 73.42 743.608 69.24C745.128 65.06 747.978 61.26 752.158 57.84C756.338 54.8 760.708 53.09 765.268 52.71C769.828 51.95 773.058 52.9 774.958 55.56C777.238 58.6 777.618 62.21 776.098 66.39C774.958 70.57 772.298 74.37 768.118 77.79ZM876.792 237.96C885.912 237.96 894.462 236.25 902.442 232.83C910.422 229.41 917.262 224.85 922.962 219.15C929.042 213.45 933.982 206.8 937.782 199.2C941.582 191.6 943.862 183.24 944.622 174.12C945.382 165.76 945.002 157.59 943.482 149.61C941.962 141.25 939.112 133.84 934.932 127.38C931.132 120.54 925.812 115.22 918.972 111.42C912.132 107.24 903.962 105.15 894.462 105.15C882.682 105.15 872.422 108.57 863.682 115.41C861.402 117.69 859.312 120.35 857.412 123.39C855.512 126.43 854.182 129.47 853.422 132.51C852.282 138.97 852.852 145.43 855.132 151.89C857.792 157.97 861.212 164.05 865.392 170.13C865.772 170.51 865.772 171.27 865.392 172.41C865.012 173.17 864.822 173.93 864.822 174.69C863.302 177.73 861.972 180.01 860.832 181.53C860.452 181.91 859.502 183.05 857.982 184.95C856.842 186.85 855.892 187.23 855.132 186.09C848.672 170.89 846.392 155.12 848.292 138.78C850.192 127.38 854.942 118.64 862.542 112.56C870.142 106.1 879.832 102.49 891.612 101.73C902.632 100.97 913.082 101.92 922.962 104.58C932.842 107.24 941.392 111.42 948.612 117.12C955.832 122.44 961.342 129.47 965.142 138.21C969.322 146.95 971.412 157.21 971.412 168.99C971.412 191.79 964.002 209.65 949.182 222.57C934.742 235.49 916.692 241.95 895.032 241.95C885.532 241.95 876.602 244.04 868.242 248.22C860.262 252.02 853.042 257.34 846.582 264.18C840.502 270.64 835.562 278.05 831.762 286.41C828.342 294.77 826.252 303.51 825.492 312.63C825.112 321.75 826.252 331.06 828.912 340.56C831.572 350.06 835.752 358.61 841.452 366.21C847.152 373.43 853.992 379.51 861.972 384.45C870.332 389.01 879.452 391.29 889.332 391.29C898.072 391.29 905.862 389.01 912.702 384.45C919.922 379.89 926.192 374.38 931.512 367.92C934.552 364.88 937.022 361.46 938.922 357.66C940.822 353.86 942.722 349.87 944.622 345.69V285.84C944.242 281.66 943.292 277.86 941.772 274.44C941.012 272.92 940.442 271.59 940.062 270.45L976.542 243.66C976.542 243.66 976.352 244.99 975.972 247.65C975.212 252.59 974.262 261.33 973.122 273.87C972.362 286.03 971.792 304.08 971.412 328.02V337.71C971.412 344.17 971.412 350.82 971.412 357.66C971.412 364.12 972.362 370.58 974.262 377.04C976.162 384.64 979.962 389.58 985.662 391.86C987.942 392.62 987.752 393.19 985.092 393.57C982.812 394.33 981.292 394.9 980.532 395.28C977.872 395.66 974.832 395.85 971.412 395.85C968.372 395.85 965.522 395.28 962.862 394.14C954.882 391.1 949.752 385.59 947.472 377.61C945.572 369.63 944.812 361.46 945.192 353.1C938.732 364.5 930.562 374.38 920.682 382.74C911.182 390.72 899.402 394.9 885.342 395.28C859.502 395.28 839.172 388.82 824.352 375.9C809.532 362.6 801.172 344.17 799.272 320.61C798.512 309.21 800.032 298.57 803.832 288.69C807.632 278.43 812.952 269.69 819.792 262.47C827.012 254.87 835.372 248.98 844.872 244.8C854.752 240.24 865.392 237.96 876.792 237.96Z" fill="#FF007B" fill-opacity="0.17"/>
<path d="M929.827 79.7487C929.587 80.0026 929.258 80.4001 928.842 80.9412C928.426 81.4823 927.96 82.0924 927.446 82.7715C926.952 83.4616 926.431 84.1782 925.883 84.9212C925.356 85.6752 924.856 86.4029 924.384 87.1041C923.912 87.8053 923.489 88.4375 923.115 89.0007C922.763 89.575 922.504 90.0218 922.338 90.3413C922.283 90.4478 922.057 90.4658 921.661 90.3953C921.275 90.3572 920.869 90.2275 920.443 90.0063C920.027 89.8175 919.688 89.56 919.424 89.2339C919.15 88.9291 919.123 88.5638 919.345 88.1378C919.511 87.8183 919.775 87.3876 920.137 86.8457C920.489 86.3251 920.89 85.7355 921.34 85.0769C921.779 84.4396 922.245 83.7758 922.739 83.0857C923.233 82.3955 923.71 81.7373 924.17 81.111C924.631 80.4848 925.058 79.9224 925.452 79.4239C925.846 78.9255 926.153 78.5437 926.371 78.2787C925.465 77.8891 924.585 77.4999 923.732 77.1111C922.901 76.7334 922.048 76.3446 921.174 75.9447C921.021 76.1356 920.731 76.4854 920.305 76.9941C919.91 77.4926 919.445 78.0758 918.909 78.7439C918.384 79.3906 917.82 80.0851 917.219 80.8272C916.617 81.5694 916.048 82.2745 915.512 82.9426C914.975 83.6106 914.494 84.199 914.068 84.7077C913.651 85.2487 913.361 85.6254 913.197 85.8375C912.896 85.8436 912.57 85.7689 912.218 85.6132C911.855 85.4788 911.541 85.3022 911.276 85.0835C911.011 84.8647 910.817 84.6148 910.692 84.3338C910.556 84.0741 910.566 83.822 910.72 83.5775C913.336 79.5815 916.263 75.6118 919.501 71.6683C922.75 67.7034 926.194 63.9349 929.834 60.3625L933.107 62.1839C932.376 62.967 931.53 63.8933 930.569 64.9627C929.629 66.0432 928.662 67.1501 927.668 68.2834C926.695 69.4278 925.733 70.5509 924.782 71.6527C923.864 72.7442 923.06 73.6926 922.372 74.4979C923.245 74.9514 924.097 75.367 924.929 75.7447C925.76 76.1225 926.63 76.4793 927.537 76.8153C928.226 76.01 929.05 75.0727 930.011 74.0033C930.984 72.9125 931.967 71.8005 932.961 70.6672C933.987 69.5236 934.981 68.4171 935.942 67.3477C936.925 66.2893 937.771 65.3631 938.481 64.5689L941.904 66.0223C941.173 66.8054 940.321 67.7423 939.349 68.833C938.409 69.9135 937.426 71.0255 936.4 72.1691C935.405 73.3024 934.422 74.4144 933.45 75.5052C932.499 76.607 931.68 77.5605 930.991 78.3657C931.77 78.689 932.479 78.9628 933.12 79.1874C933.761 79.4119 934.476 79.6751 935.265 79.9771L934.276 81.4915C933.454 81.1998 932.701 80.9307 932.018 80.684C931.346 80.4161 930.616 80.1043 929.827 79.7487Z" fill="#282121"/>
<path d="M939.772 75.7877C940.214 75.4538 940.695 75.2941 941.214 75.3087C941.766 75.3175 942.174 75.4887 942.438 75.8224C942.701 76.1561 942.797 76.5616 942.723 77.039C942.683 77.5107 942.412 77.9359 941.908 78.3147C941.466 78.6486 940.979 78.8181 940.446 78.8231C939.913 78.8282 939.524 78.6708 939.28 78.351C939.017 78.0173 938.919 77.595 938.986 77.0842C939.068 76.5537 939.33 76.1216 939.772 75.7877ZM936.376 82.2051C935.722 82.7128 935.058 83.2569 934.382 83.8373C933.726 84.4315 933.08 85.0327 932.444 85.6408C931.807 86.2489 931.205 86.8513 930.635 87.448C930.085 88.0585 929.59 88.634 929.148 89.1743C928.976 89.3759 928.814 89.5845 928.661 89.7999C928.528 90.0293 928.429 90.2529 928.363 90.4708C928.317 90.7026 928.32 90.9257 928.374 91.1403C928.428 91.3549 928.58 91.5356 928.828 91.6825C929.156 91.8847 929.636 91.8715 930.268 91.6429C930.934 91.4085 931.619 91.0847 932.323 90.6716C933.046 90.2724 933.731 89.8454 934.376 89.3907C935.022 88.936 935.504 88.5866 935.824 88.3425L936.455 89.0094C936.093 89.3123 935.545 89.7331 934.811 90.2719C934.11 90.805 933.341 91.2895 932.503 91.7255C931.685 92.1753 930.863 92.5052 930.038 92.7152C929.233 92.939 928.545 92.8931 927.974 92.5775C927.345 92.2202 926.861 91.8038 926.521 91.3281C926.181 90.8525 925.959 90.3568 925.854 89.8411C925.762 89.3058 925.783 88.777 925.918 88.2548C926.052 87.7325 926.289 87.253 926.627 86.8163C927.809 85.2712 929.175 83.8412 930.723 82.5261C932.272 81.2111 933.836 80.0396 935.416 79.0118C935.728 78.8208 936.075 78.7872 936.458 78.9111C936.855 79.0155 937.21 79.1786 937.523 79.4005C937.856 79.6362 938.112 79.8764 938.292 80.1212C938.491 80.3798 938.546 80.5512 938.457 80.6352L936.376 82.2051Z" fill="#282121"/>
<path d="M944.615 94.4458C943.944 94.995 943.182 95.5667 942.329 96.1609C941.475 96.7551 940.6 97.3184 939.703 97.8506C938.811 98.4164 937.955 98.9338 937.134 99.4029L935.248 98.0178C935.981 97.4248 936.747 96.7667 937.546 96.0434C938.351 95.3537 939.128 94.6594 939.88 93.9606C940.645 93.2425 941.325 92.5804 941.919 91.9744L944.647 93.9775L944.615 94.4458Z" fill="#282121"/>
<path d="M952.139 111.517C953.522 110.754 954.931 109.984 956.365 109.204C957.816 108.441 959.35 107.541 960.968 106.505C962.603 105.486 964.355 104.278 966.223 102.883C968.091 101.487 970.143 99.7843 972.378 97.7738C972.613 97.5675 972.923 97.2331 973.309 96.7706C973.711 96.3249 974.071 95.8542 974.388 95.3585C974.704 94.8628 974.92 94.3682 975.033 93.8748C975.146 93.3813 975.04 92.9752 974.714 92.6564C974.474 92.4214 974.023 92.367 973.363 92.4932C972.736 92.6189 971.992 92.8478 971.13 93.1799C970.302 93.5115 969.407 93.9118 968.445 94.3808C967.483 94.8497 966.555 95.3352 965.661 95.8373C964.784 96.3223 963.991 96.7893 963.284 97.2384C962.593 97.7043 962.079 98.0749 961.743 98.3502C961.037 98.9351 960.619 99.4998 960.489 100.044C960.393 100.589 960.45 101.148 960.66 101.723L959.848 101.884C959.692 101.666 959.476 101.303 959.199 100.797C958.939 100.274 958.746 99.6988 958.62 99.0723C958.511 98.4286 958.529 97.775 958.674 97.1115C958.854 96.4476 959.305 95.8486 960.029 95.3144C960.854 94.7112 961.756 94.1326 962.734 93.5787C963.746 93.0243 964.767 92.5293 965.798 92.0936C966.845 91.6746 967.893 91.3235 968.943 91.0403C970.009 90.7739 971 90.6016 971.915 90.5236C972.865 90.4451 973.714 90.5036 974.463 90.6989C975.229 90.8771 975.852 91.2011 976.332 91.671C977.07 92.4265 977.521 93.287 977.685 94.2526C977.865 95.235 977.741 96.2886 977.313 97.4135C976.918 98.538 976.209 99.7084 975.188 100.925C974.2 102.141 972.907 103.377 971.308 104.634C969.441 106.097 967.512 107.417 965.523 108.593C963.55 109.752 961.72 110.748 960.032 111.582C958.344 112.415 956.9 113.084 955.701 113.59C954.485 114.113 953.708 114.461 953.37 114.634L952.139 111.517Z" fill="#282121"/>
<path d="M972.205 126.404C971.607 126.275 971.024 125.942 970.456 125.406C969.921 124.874 969.559 124.233 969.368 123.481C969.212 122.734 969.315 121.918 969.679 121.03C970.076 120.148 970.915 119.301 972.194 118.49C973.993 117.331 975.648 116.588 977.161 116.261C978.706 115.938 980.07 115.897 981.253 116.135C982.454 116.36 983.477 116.788 984.322 117.42C985.167 118.052 985.812 118.755 986.256 119.53C986.471 119.908 986.6 120.289 986.642 120.674C986.685 121.058 986.682 121.402 986.634 121.703C986.606 121.991 986.552 122.223 986.472 122.399C986.393 122.576 986.346 122.654 986.332 122.635C986.637 122.769 986.891 122.955 987.094 123.194C987.311 123.451 987.478 123.701 987.594 123.943C987.71 124.185 987.779 124.402 987.8 124.594C987.855 124.792 987.846 124.902 987.774 124.925C987.373 125.068 986.772 125.282 985.971 125.567C985.189 125.839 984.306 126.154 983.321 126.514C982.37 126.879 981.38 127.272 980.351 127.693C979.356 128.12 978.464 128.546 977.675 128.971C977.544 129.036 977.365 129.136 977.137 129.272C976.943 129.413 976.756 129.564 976.576 129.725C976.429 129.89 976.307 130.069 976.208 130.259C976.143 130.455 976.173 130.64 976.3 130.815C976.47 131.048 976.895 131.184 977.576 131.223C978.271 131.282 979.027 131.281 979.844 131.221C980.681 131.147 981.486 131.052 982.261 130.934C983.069 130.821 983.651 130.724 984.008 130.643L984.301 131.72C983.92 131.849 983.294 132.008 982.422 132.196C981.55 132.385 980.619 132.512 979.629 132.579C978.639 132.646 977.678 132.588 976.744 132.406C975.845 132.229 975.159 131.837 974.688 131.23C974.429 130.914 974.24 130.532 974.122 130.084C974.018 129.655 973.984 129.22 974.02 128.779C974.074 128.324 974.194 127.896 974.377 127.495C974.58 127.081 974.864 126.756 975.227 126.522C975.208 126.536 974.936 126.57 974.412 126.624C973.922 126.684 973.186 126.611 972.205 126.404ZM973.06 125.56C974.138 125.696 975.219 125.653 976.302 125.429C977.386 125.205 978.446 124.909 979.484 124.541C980.522 124.172 981.519 123.789 982.475 123.39C983.451 122.978 984.361 122.658 985.205 122.431C985.254 122.335 985.306 122.223 985.361 122.095C985.435 121.952 985.478 121.787 985.491 121.6C985.517 121.432 985.496 121.24 985.427 121.023C985.392 120.811 985.28 120.596 985.091 120.377C984.587 119.764 983.88 119.403 982.969 119.293C982.073 119.203 981.109 119.265 980.079 119.48C979.068 119.681 978.057 119.985 977.048 120.392C976.053 120.819 975.177 121.247 974.422 121.678C973.986 121.935 973.576 122.248 973.191 122.617C972.82 123.005 972.546 123.382 972.367 123.749C972.203 124.136 972.154 124.497 972.221 124.834C972.308 125.157 972.587 125.399 973.06 125.56Z" fill="#282121"/>
<path d="M985.365 149.371C985.214 149.097 985.099 148.764 985.018 148.369C984.95 147.996 984.972 147.614 985.086 147.223C985.199 146.831 985.421 146.463 985.75 146.117C986.08 145.77 986.579 145.482 987.247 145.251C988.456 144.859 989.421 144.547 990.142 144.314C990.863 144.081 991.488 143.874 992.018 143.692C992.581 143.519 993.121 143.331 993.639 143.128C994.19 142.934 994.888 142.659 995.733 142.303C995.892 142.243 996.076 142.155 996.287 142.039C996.497 141.923 996.685 141.792 996.851 141.646C997.029 141.521 997.152 141.371 997.22 141.196C997.3 141.043 997.287 140.872 997.183 140.682C996.931 140.273 996.485 140.012 995.847 139.898C995.241 139.793 994.521 139.779 993.686 139.855C992.884 139.941 991.999 140.099 991.03 140.331C990.062 140.563 989.095 140.822 988.129 141.108C987.195 141.403 986.299 141.691 985.44 141.972C984.581 142.253 983.833 142.487 983.196 142.674C983.026 142.713 982.787 142.652 982.48 142.493C982.194 142.321 981.928 142.112 981.682 141.864C981.457 141.604 981.306 141.331 981.23 141.044C981.166 140.778 981.297 140.569 981.624 140.416C981.834 140.3 982.305 140.11 983.035 139.844C983.778 139.6 984.614 139.303 985.546 138.955C986.477 138.606 987.455 138.218 988.48 137.79C989.517 137.384 990.446 136.982 991.268 136.584C992.09 136.186 992.74 135.8 993.22 135.426C993.72 135.041 993.916 134.701 993.807 134.404C993.736 134.224 993.574 134.08 993.323 133.972C993.104 133.874 992.837 133.787 992.523 133.714C992.22 133.662 991.886 133.627 991.52 133.609C991.166 133.612 990.817 133.626 990.474 133.651C989.789 133.699 989.02 133.821 988.169 134.016C987.317 134.212 986.446 134.445 985.554 134.717C984.684 134.977 983.835 135.253 983.009 135.543C982.194 135.855 981.481 136.152 980.869 136.434C980.806 136.469 980.652 136.513 980.407 136.565C980.174 136.639 979.918 136.698 979.641 136.741C979.384 136.773 979.127 136.777 978.868 136.756C978.63 136.722 978.459 136.611 978.355 136.422C978.124 136.001 978.098 135.481 978.277 134.862C978.489 134.252 978.942 133.756 979.636 133.374C981.086 132.575 982.874 131.741 984.998 130.872C987.134 130.024 989.439 129.234 991.913 128.502C992.255 128.477 992.572 128.604 992.862 128.883C993.174 129.15 993.422 129.451 993.607 129.788C993.804 130.145 993.93 130.473 993.985 130.772C994.051 131.091 994.026 131.27 993.909 131.306L990.013 132.59C991.592 132.323 992.916 132.388 993.985 132.786C995.086 133.193 995.78 133.907 996.068 134.926C996.194 135.405 996.195 135.829 996.07 136.199C995.978 136.579 995.809 136.918 995.563 137.218C995.338 137.507 995.063 137.754 994.738 137.96C994.446 138.176 994.174 138.353 993.922 138.492C994.36 138.442 994.832 138.429 995.338 138.452C995.855 138.496 996.354 138.605 996.834 138.779C997.334 138.942 997.789 139.17 998.198 139.466C998.628 139.749 998.977 140.133 999.243 140.616C999.417 140.932 999.539 141.303 999.61 141.73C999.692 142.178 999.677 142.624 999.566 143.069C999.476 143.502 999.257 143.924 998.908 144.336C998.592 144.756 998.106 145.093 997.45 145.344C996.53 145.714 995.704 146.005 994.971 146.217C994.25 146.449 993.554 146.654 992.885 146.831C992.215 147.008 991.545 147.185 990.876 147.363C990.217 147.561 989.496 147.793 988.712 148.061C988.553 148.121 988.379 148.203 988.19 148.307C988.001 148.412 987.834 148.531 987.689 148.666C987.544 148.8 987.431 148.945 987.352 149.098C987.283 149.273 987.296 149.444 987.388 149.612C987.539 149.885 987.965 150.062 988.666 150.141C989.4 150.23 990.217 150.246 991.117 150.189C992.017 150.131 992.894 150.032 993.748 149.891C994.622 149.738 995.272 149.599 995.697 149.475L995.91 150.384C995.411 150.522 994.655 150.692 993.643 150.894C992.663 151.105 991.62 151.227 990.515 151.26C989.431 151.282 988.406 151.161 987.439 150.899C986.485 150.658 985.793 150.148 985.365 149.371Z" fill="#282121"/>
</svg>
