<svg width="175" height="37" viewBox="0 0 175 37" fill="none" xmlns="http://www.w3.org/2000/svg">
<path d="M4.68 29.52C3.61333 29.2533 2.65333 28.72 1.8 27.92C0.973334 27.12 0.44 26.2933 0.2 25.44C0.173333 25.0933 0.133333 24.64 0.0800002 24.08C0.0533335 23.52 0.0400001 23 0.0400001 22.52C0.0666669 22.04 0.106667 21.76 0.16 21.68C0.24 21.6267 0.28 21.4667 0.28 21.2C0.253334 21.0933 0.266667 20.92 0.32 20.68C0.4 20.4133 0.48 20.1467 0.56 19.88C0.693334 19.56 0.76 19.3067 0.76 19.12C0.76 18.9067 0.746667 18.7467 0.72 18.64C0.72 18.64 0.76 18.56 0.84 18.4C0.92 18.2133 1.01333 18.0667 1.12 17.96C1.28 17.8 1.34667 17.64 1.32 17.48C1.32 17.32 1.32 17.24 1.32 17.24C1.29333 17.1333 1.32 16.9867 1.4 16.8C1.48 16.6133 1.56 16.4667 1.64 16.36C1.69333 16.3067 1.76 16.2 1.84 16.04C1.94667 15.8533 2 15.76 2 15.76C2 15.68 2.05333 15.4667 2.16 15.12C2.29333 14.7733 2.44 14.4 2.6 14C2.76 13.5733 2.90667 13.1867 3.04 12.84C3.2 12.4933 3.32 12.2667 3.4 12.16V12.08C3.50667 11.8133 3.65333 11.5333 3.84 11.24C3.86667 11.1067 3.93333 10.8933 4.04 10.6C4.14667 10.28 4.26667 9.97333 4.4 9.68C4.69333 9.04 5.05333 8.32 5.48 7.52C5.93333 6.69333 6.41333 5.88 6.92 5.08C7.42667 4.25333 7.90667 3.52 8.36 2.88C8.84 2.21333 9.25333 1.72 9.6 1.4C10.0533 0.893333 10.4133 0.626665 10.68 0.599998C10.9467 0.573331 11.28 0.759999 11.68 1.16C11.8667 1.34667 12 1.57333 12.08 1.84C12.16 2.10666 12.1867 2.34666 12.16 2.56C12.16 2.74667 12.1067 2.85333 12 2.88C11.8133 2.98667 11.5333 3.29333 11.16 3.8C10.7867 4.28 10.36 4.85333 9.88 5.52C9.42667 6.18667 8.97333 6.88 8.52 7.6C8.09333 8.29333 7.72 8.92 7.4 9.48C7.05333 10.2533 6.73333 10.9333 6.44 11.52C6.14667 12.08 6 12.36 6 12.36C5.97333 12.44 5.94667 12.5067 5.92 12.56C5.89333 12.6133 5.86667 12.6667 5.84 12.72C5.44 13.5467 5.10667 14.3067 4.84 15C4.57333 15.6667 4.30667 16.3733 4.04 17.12C3.88 17.3067 3.78667 17.4933 3.76 17.68C3.73333 17.8667 3.72 17.96 3.72 17.96C3.66667 17.9333 3.62667 18 3.6 18.16C3.57333 18.2933 3.52 18.4533 3.44 18.64C3.30667 18.7467 3.22667 18.92 3.2 19.16C3.17333 19.3733 3.16 19.5867 3.16 19.8C2.97333 20.28 2.8 20.8667 2.64 21.56C2.48 22.2267 2.36 22.88 2.28 23.52C2.22667 24.1333 2.21333 24.6133 2.24 24.96C2.29333 25.4133 2.52 25.8267 2.92 26.2C3.34667 26.5467 3.85333 26.84 4.44 27.08C4.73333 27.1867 4.98667 27.28 5.2 27.36C5.41333 27.4133 5.61333 27.44 5.8 27.44C6.01333 27.4667 6.28 27.4667 6.6 27.44C6.94667 27.3867 7.41333 27.3067 8 27.2H7.96C8.30667 27.1467 8.66667 27.08 9.04 27C9.44 26.8933 9.81333 26.8 10.16 26.72C10.48 26.6667 10.7867 26.6133 11.08 26.56C11.3733 26.48 11.6 26.4133 11.76 26.36C12.3467 26.2 12.7733 26.0933 13.04 26.04C13.3067 25.96 13.5067 25.9733 13.64 26.08C13.7733 26.1867 13.8667 26.32 13.92 26.48C13.9733 26.6133 13.96 26.8 13.88 27.04C13.8267 27.1733 13.6133 27.3733 13.24 27.64C12.8667 27.88 12.4133 28.12 11.88 28.36C11.3733 28.6 10.8667 28.8 10.36 28.96C9.82667 29.2 9.18667 29.3867 8.44 29.52C7.72 29.6533 7.01333 29.72 6.32 29.72C5.65333 29.72 5.10667 29.6533 4.68 29.52ZM17.3113 26.56C17.2046 26.3467 17.0713 26.1867 16.9113 26.08C16.7513 25.9467 16.6713 25.8267 16.6713 25.72C16.6713 25.6133 16.6579 25.5067 16.6313 25.4C16.6313 25.2667 16.5779 25.1467 16.4713 25.04C16.3379 24.88 16.3513 24.52 16.5113 23.96C16.6713 23.3733 16.9379 22.6667 17.3113 21.84C17.6846 20.9867 18.1246 20.0933 18.6313 19.16C18.8446 18.9467 19.0579 18.6667 19.2713 18.32C19.4846 17.9733 19.6446 17.7467 19.7513 17.64C19.7513 17.5333 19.7913 17.44 19.8713 17.36C19.9513 17.2533 20.0446 17.2 20.1513 17.2V16.96C20.1513 16.8267 20.2713 16.6 20.5113 16.28C20.7779 15.96 21.0979 15.6133 21.4713 15.24C21.8446 14.84 22.2313 14.4667 22.6313 14.12C23.0313 13.7467 23.3646 13.48 23.6313 13.32C24.1913 12.9467 24.7646 12.72 25.3513 12.64C25.9646 12.56 26.4846 12.6933 26.9113 13.04C26.9913 13.12 27.1246 13.2533 27.3113 13.44C27.4979 13.6267 27.7113 13.84 27.9513 14.08C28.2179 14.2933 28.4846 14.52 28.7513 14.76L30.2313 16.08L29.5113 18.08C29.1646 19.1467 29.0713 20.08 29.2313 20.88C29.4179 21.68 29.6846 22.3733 30.0313 22.96C30.1646 23.2533 30.4313 23.5333 30.8313 23.8C31.2579 24.0667 31.6579 24.2267 32.0313 24.28C32.2446 24.3067 32.4446 24.3867 32.6313 24.52C32.8179 24.6533 32.9113 24.8667 32.9113 25.16C32.9113 25.4267 32.8579 25.64 32.7513 25.8C32.6446 25.96 32.4579 26.0667 32.1913 26.12C31.3113 26.2267 30.4846 26.0133 29.7113 25.48C28.9646 24.9467 28.2713 24.0667 27.6313 22.84C27.5246 22.68 27.3779 22.3867 27.1913 21.96C27.0313 21.5067 26.9379 21.2133 26.9113 21.08C26.8046 21.2133 26.6046 21.4667 26.3113 21.84C26.0179 22.1867 25.7913 22.44 25.6313 22.6C23.7379 24.52 22.0979 25.8133 20.7113 26.48C19.3513 27.12 18.2179 27.1467 17.3113 26.56ZM18.7513 24.32C18.7513 24.5067 19.0313 24.5067 19.5913 24.32C20.1779 24.1067 20.8046 23.7333 21.4713 23.2C22.3779 22.4267 23.2846 21.5733 24.1913 20.64C25.1246 19.7067 25.8713 18.84 26.4313 18.04L27.3113 16.6C27.0446 15.9867 26.7513 15.5733 26.4313 15.36C26.1379 15.12 25.8846 15 25.6713 15C25.3246 15 24.8046 15.32 24.1113 15.96C23.4446 16.6 22.7246 17.4533 21.9513 18.52C21.1779 19.5867 20.4446 20.76 19.7513 22.04C19.4846 22.5733 19.2446 23.0933 19.0313 23.6C18.8446 24.08 18.7513 24.32 18.7513 24.32ZM48.6522 26.16C48.1189 26.16 47.6789 26.0533 47.3322 25.84C46.9855 25.6 46.6922 25.2133 46.4522 24.68C46.3455 24.3067 46.2522 23.8933 46.1722 23.44C46.1189 22.96 46.0922 22.52 46.0922 22.12C46.0922 21.6933 46.1322 21.4133 46.2122 21.28C46.3189 21.1733 46.3589 20.9867 46.3322 20.72C46.3322 20.4267 46.3322 20.12 46.3322 19.8C46.3055 19.2667 46.1722 18.9733 45.9322 18.92C45.7189 18.84 45.3989 18.92 44.9722 19.16C44.4922 19.4533 43.8655 19.8533 43.0922 20.36C42.3189 20.84 41.5055 21.3733 40.6522 21.96C39.8255 22.5467 39.0389 23.16 38.2922 23.8C37.7055 24.44 37.3455 24.9333 37.2122 25.28C37.1055 25.6 36.9455 25.76 36.7322 25.76C36.5189 25.8667 36.3322 25.88 36.1722 25.8C36.0389 25.6933 35.8389 25.5333 35.5722 25.32C35.3855 25.1067 35.1989 24.9067 35.0122 24.72C34.8255 24.5067 34.7055 24.3467 34.6522 24.24C34.6522 24.1067 34.6922 23.8267 34.7722 23.4C34.8522 22.9733 34.9455 22.5467 35.0522 22.12C35.1855 21.6933 35.2789 21.4133 35.3322 21.28C35.4655 21.28 35.5722 21.1467 35.6522 20.88C35.7589 20.6133 35.9189 20.32 36.1322 20C36.1855 19.68 36.3189 19.2533 36.5322 18.72C36.7722 18.16 36.9855 17.6667 37.1722 17.24C37.5455 16.6 37.7989 16.0667 37.9322 15.64C38.0922 15.2133 38.1989 14.68 38.2522 14.04C38.2255 13.9333 38.2522 13.84 38.3322 13.76C38.4122 13.6533 38.5055 13.6 38.6122 13.6C38.8255 13.3867 39.0789 13.3333 39.3722 13.44C39.6655 13.52 39.9322 13.72 40.1722 14.04C40.6522 14.68 40.8389 15.3467 40.7322 16.04C40.6522 16.7067 40.2255 17.6667 39.4522 18.92C39.2655 19.3467 39.1189 19.68 39.0122 19.92C38.9322 20.1333 38.8922 20.3067 38.8922 20.44C38.8922 20.44 39.0255 20.3467 39.2922 20.16C39.5855 19.9733 39.9055 19.76 40.2522 19.52C40.6255 19.2533 40.9189 19.0533 41.1322 18.92C41.2655 18.7867 41.5722 18.5467 42.0522 18.2C42.5322 17.8533 43.0389 17.52 43.5722 17.2C44.1322 16.8533 44.5455 16.6533 44.8122 16.6C45.0255 16.4933 45.2522 16.4 45.4922 16.32C45.7322 16.2133 45.9055 16.16 46.0122 16.16C46.2255 16.16 46.4922 16.28 46.8122 16.52C47.1589 16.7333 47.4789 17 47.7722 17.32C48.0655 17.6133 48.2389 17.8667 48.2922 18.08C48.2922 18.1867 48.2922 18.2933 48.2922 18.4C48.3189 18.5067 48.3455 18.6133 48.3722 18.72C48.4789 19.0667 48.5322 19.5333 48.5322 20.12C48.5589 20.7067 48.5455 21.24 48.4922 21.72C48.4389 22.2 48.3455 22.48 48.2122 22.56C48.2122 22.56 48.2122 22.6 48.2122 22.68C48.2389 22.7333 48.3055 22.76 48.4122 22.76C48.4122 22.8667 48.4122 22.9333 48.4122 22.96C48.2789 22.96 48.2255 23.08 48.2522 23.32C48.2789 23.5333 48.3589 23.7733 48.4922 24.04C48.6522 24.3067 48.8122 24.52 48.9722 24.68C49.2922 25 49.4255 25.3067 49.3722 25.6C49.3189 25.8667 49.0789 26.0533 48.6522 26.16ZM62.74 27.6C62.6333 27.6 62.4733 27.5867 62.26 27.56C62.0733 27.5067 61.9133 27.3867 61.78 27.2C61.38 26.72 61.1267 26.32 61.02 26C60.9133 25.68 60.9 25.2133 60.98 24.6C61.0333 24.2 61.06 23.8533 61.06 23.56C61.0867 23.24 61.1133 22.9733 61.14 22.76C61.0333 22.6533 60.8333 22.7333 60.54 23C60.2733 23.24 59.9 23.5467 59.42 23.92C58.5133 24.96 57.7 25.76 56.98 26.32C56.2867 26.8533 55.66 27.2133 55.1 27.4C54.54 27.56 54.0067 27.6133 53.5 27.56C53.0467 27.5067 52.6867 27.32 52.42 27C52.1533 26.6533 51.98 26.2133 51.9 25.68C51.8467 25.1467 51.8467 24.5733 51.9 23.96C52.0067 23.08 52.1933 22.24 52.46 21.44C52.7533 20.64 53.22 19.7467 53.86 18.76C54.1533 18.2267 54.54 17.7067 55.02 17.2C55.5267 16.6667 56.0733 16.2 56.66 15.8C57.2733 15.3733 57.86 15.0667 58.42 14.88C59.0333 14.64 59.66 14.5067 60.3 14.48C60.94 14.4267 61.5133 14.48 62.02 14.64C62.34 14.8 62.5933 14.88 62.78 14.88C62.9933 14.88 63.1533 14.7467 63.26 14.48C63.3933 14.2667 63.5267 13.9467 63.66 13.52C63.7933 13.0667 63.9533 12.68 64.14 12.36L65.02 9.76C65.3133 9.04 65.6333 8.28 65.98 7.48C66.3267 6.68 66.74 5.70667 67.22 4.56C67.6733 3.70667 68.0467 3.21333 68.34 3.08C68.6333 2.92 68.9667 3.02667 69.34 3.4C69.6333 3.74667 69.74 4.14666 69.66 4.6C69.58 5.02667 69.34 5.72 68.94 6.68C68.7533 6.97333 68.5933 7.25333 68.46 7.52C68.3267 7.76 68.14 8.14667 67.9 8.68C67.5533 9.50667 67.2333 10.2533 66.94 10.92C66.6467 11.56 66.34 12.2933 66.02 13.12C65.9133 13.5467 65.7667 14.04 65.58 14.6C65.42 15.16 65.2867 15.6667 65.18 16.12C65.1 16.5467 65.0067 16.9467 64.9 17.32C64.82 17.6667 64.7267 17.84 64.62 17.84C64.4067 18.08 64.2067 18.5067 64.02 19.12C63.8333 19.7067 63.6733 20.32 63.54 20.96C63.4333 21.6 63.34 22.1333 63.26 22.56C63.2067 22.88 63.1667 23.2933 63.14 23.8C63.1133 24.3067 63.1 24.8 63.1 25.28C63.1 25.7333 63.1 26.0533 63.1 26.24C63.1 26.8267 63.0867 27.2 63.06 27.36C63.0333 27.52 62.9267 27.6 62.74 27.6ZM54.22 25.08C54.78 25.08 55.3667 24.84 55.98 24.36C56.62 23.88 57.26 23.3467 57.9 22.76C58.3 22.3867 58.7267 21.8933 59.18 21.28C59.66 20.6667 60.1133 20.0533 60.54 19.44C60.9933 18.8267 61.3533 18.2933 61.62 17.84C61.8867 17.36 62.02 17.0667 62.02 16.96C62.02 16.8267 61.9 16.7333 61.66 16.68C61.42 16.6267 61.14 16.6 60.82 16.6C60.5267 16.5733 60.2867 16.5867 60.1 16.64C59.5133 16.7733 58.9267 17.04 58.34 17.44C57.78 17.84 57.1667 18.44 56.5 19.24C55.8067 20.0933 55.2333 20.9733 54.78 21.88C54.3533 22.7867 54.0867 23.5467 53.98 24.16C53.8733 24.7733 53.9533 25.08 54.22 25.08ZM70.2031 26.76C69.8031 26.7067 69.4565 26.4267 69.1631 25.92C68.8965 25.3867 68.7365 24.9067 68.6831 24.48C68.7098 24.2667 68.7365 23.96 68.7631 23.56C68.8165 23.16 68.8698 22.7467 68.9231 22.32C69.0298 21.8133 69.1765 21.2 69.3631 20.48C69.5498 19.7333 69.7365 18.9867 69.9231 18.24C70.1365 17.4933 70.3231 16.8533 70.4831 16.32C70.6431 15.7867 70.7498 15.4667 70.8031 15.36C70.9365 15.1467 71.1498 15.0933 71.4431 15.2C71.7365 15.3067 71.9765 15.4667 72.1631 15.68C72.3231 15.8933 72.4165 16.1467 72.4431 16.44C72.4965 16.7333 72.4565 17.16 72.3231 17.72C72.2165 18.28 72.0031 19.1067 71.6831 20.2C71.3898 21.2667 71.1631 22.1333 71.0031 22.8C70.8698 23.44 70.8165 24.12 70.8431 24.84C70.7365 25.7467 70.6565 26.3067 70.6031 26.52C70.5498 26.7067 70.4165 26.7867 70.2031 26.76ZM74.8031 10.8C74.6965 10.88 74.5898 10.92 74.4831 10.92C74.4031 10.8933 74.2565 10.8133 74.0431 10.68C73.8565 10.6533 73.6165 10.5333 73.3231 10.32C73.0565 10.08 72.8165 9.84 72.6031 9.6C72.4165 9.33333 72.3231 9.17333 72.3231 9.12C72.2965 8.85333 72.3098 8.52 72.3631 8.12C72.4431 7.69333 72.5898 7.32 72.8031 7C73.0165 6.65333 73.3231 6.46666 73.7231 6.44C73.8298 6.44 73.9231 6.45333 74.0031 6.48C74.0831 6.50667 74.3231 6.6 74.7231 6.76C74.9365 7.16 75.1498 7.61333 75.3631 8.12C75.5765 8.6 75.6698 9.08 75.6431 9.56C75.6165 10.0133 75.3365 10.4267 74.8031 10.8ZM77.5841 26.24C77.4774 26.24 77.3174 26.1733 77.1041 26.04C76.9174 25.88 76.7707 25.7467 76.6641 25.64C76.4774 25.4267 76.3574 25.2133 76.3041 25C76.2774 24.7867 76.2641 24.3067 76.2641 23.56C76.2641 22.7067 76.4374 21.7867 76.7841 20.8C77.1307 19.7867 77.7174 18.3733 78.5441 16.56L79.8641 13.76C79.9707 13.5467 80.0641 13.3867 80.1441 13.28C80.2507 13.1733 80.3441 13.0667 80.4241 12.96C80.5307 12.96 80.6241 12.96 80.7041 12.96C80.7841 12.96 80.8241 12.96 80.8241 12.96C81.0374 12.96 81.2507 13.0933 81.4641 13.36C81.6774 13.6 81.8374 13.8667 81.9441 14.16C81.9441 14.5067 81.8907 14.8667 81.7841 15.24C81.7041 15.6133 81.3841 16.1733 80.8241 16.92C80.6374 17.2133 80.3841 17.7067 80.0641 18.4C79.7707 19.0933 79.5707 19.6933 79.4641 20.2C79.4374 20.2267 79.3841 20.3467 79.3041 20.56C79.2241 20.7467 79.1307 20.96 79.0241 21.2C78.9441 21.44 78.8507 21.6667 78.7441 21.88L78.5441 22.76L81.2241 20C82.4774 18.7467 83.4907 17.8533 84.2641 17.32C85.0374 16.7867 85.6507 16.56 86.1041 16.64C86.5574 16.72 86.9441 17.08 87.2641 17.72C87.4507 18.0133 87.5841 18.28 87.6641 18.52C87.7707 18.7333 87.8374 19.0267 87.8641 19.4C87.8907 19.7733 87.8641 20.3333 87.7841 21.08V23.56C88.1841 23.4533 88.5041 23.36 88.7441 23.28C88.9841 23.1733 89.2374 23.0667 89.5041 22.96C89.7441 22.8533 90.0241 22.76 90.3441 22.68C90.6641 22.5733 91.0641 22.5067 91.5441 22.48C91.5174 22.8267 91.3974 23.2 91.1841 23.6C90.9707 23.9733 90.7041 24.3333 90.3841 24.68C90.0641 25.0267 89.7041 25.3067 89.3041 25.52C88.9307 25.7333 88.5574 25.84 88.1841 25.84C87.8374 25.84 87.4507 25.6667 87.0241 25.32C86.5974 24.9733 86.2907 24.5867 86.1041 24.16C85.9974 23.8667 85.9307 23.5467 85.9041 23.2C85.9041 22.8533 85.9041 22.2133 85.9041 21.28V19.8C85.9041 19.3733 85.7707 19.2533 85.5041 19.44C85.2641 19.6 85.0641 19.7467 84.9041 19.88C84.5041 20.2267 84.0774 20.6267 83.6241 21.08C83.1974 21.5333 82.7574 22 82.3041 22.48C81.0774 23.76 80.0507 24.7067 79.2241 25.32C78.4241 25.9333 77.8774 26.24 77.5841 26.24ZM97.8719 35.64C97.1252 35.9333 96.3385 35.88 95.5119 35.48C94.7119 35.1067 94.0185 34.5067 93.4319 33.68C93.3252 33.52 93.1919 33.2667 93.0319 32.92C92.8985 32.6 92.7652 32.2667 92.6319 31.92C92.5252 31.5733 92.4585 31.2667 92.4319 31C92.4052 30.7333 92.4319 30.5733 92.5119 30.52C92.5919 30.44 92.7252 30.4133 92.9119 30.44C93.0985 30.4667 93.2719 30.5333 93.4319 30.64C93.6185 30.7467 93.7385 30.88 93.7919 31.04C93.8719 31.2267 93.9919 31.4667 94.1519 31.76C94.3385 32.0533 94.5385 32.32 94.7519 32.56C94.9652 32.8 95.1252 32.9333 95.2319 32.96C95.7385 33.2 96.1119 33.3067 96.3519 33.28C96.5919 33.2533 96.8052 33.1733 96.9919 33.04C97.4452 32.6933 97.8185 32.24 98.1119 31.68C98.4052 31.12 98.7385 30.2533 99.1119 29.08C99.4052 28.0933 99.6985 27.0533 99.9919 25.96C100.312 24.84 100.592 23.9733 100.832 23.36C100.912 23.04 101.005 22.7733 101.112 22.56C101.245 22.32 101.365 22.1467 101.472 22.04H101.712C101.125 22.4133 100.605 22.84 100.152 23.32C99.6985 23.8 99.1252 24.1867 98.4319 24.48C98.2719 24.6667 97.8719 24.7867 97.2319 24.84C96.6185 24.8667 96.0185 24.7867 95.4319 24.6C95.0585 24.3867 94.7785 24.2267 94.5919 24.12C94.4319 24.0133 94.2985 23.8667 94.1919 23.68C94.1119 23.4933 93.9919 23.2 93.8319 22.8C93.6452 22.4 93.6185 21.7467 93.7519 20.84C93.8852 19.9333 94.1252 19.0267 94.4719 18.12C94.7919 17.4533 95.2585 16.7333 95.8719 15.96C96.4852 15.1867 97.1385 14.4933 97.8319 13.88C98.5252 13.24 99.1519 12.84 99.7119 12.68C99.9252 12.5733 100.152 12.5067 100.392 12.48C100.659 12.4267 101.032 12.4667 101.512 12.6C101.965 12.6533 102.312 12.76 102.552 12.92C102.792 13.0533 103.179 13.3467 103.712 13.8C104.059 14.1467 104.339 14.4933 104.552 14.84C104.792 15.1867 104.979 15.5467 105.112 15.92C105.299 16.32 105.365 16.6933 105.312 17.04C105.285 17.36 105.139 17.6933 104.872 18.04C104.632 18.3867 104.379 18.7333 104.112 19.08C103.845 19.4267 103.645 19.9067 103.512 20.52C103.379 21.32 103.165 22.2267 102.872 23.24C102.579 24.2267 102.325 25.1467 102.112 26L101.472 28.48C100.805 30.7467 100.165 32.4267 99.5519 33.52C98.9652 34.64 98.4052 35.3467 97.8719 35.64ZM96.4319 22.84C96.9652 22.8133 97.4719 22.7067 97.9519 22.52C98.4319 22.3333 98.8985 22.0267 99.3519 21.6C99.8052 21.1467 100.259 20.5733 100.712 19.88C101.165 19.24 101.485 18.5733 101.672 17.88C101.859 17.16 101.925 16.4667 101.872 15.8C101.845 15.3733 101.779 15.0933 101.672 14.96C101.565 14.8267 101.339 14.7867 100.992 14.84C100.485 14.92 99.9252 15.2 99.3119 15.68C98.6985 16.1333 98.1252 16.7067 97.5919 17.4C97.1919 17.9333 96.8585 18.5733 96.5919 19.32C96.3252 20.12 96.1652 20.88 96.1119 21.6C96.0585 22.32 96.1652 22.7333 96.4319 22.84ZM117.738 35C117.418 35.2133 117.085 35.2 116.738 34.96C116.418 34.72 116.178 34.36 116.018 33.88C115.858 33.4 115.871 32.8933 116.058 32.36C116.111 32.2 116.191 31.9333 116.298 31.56C116.405 31.2133 116.471 30.9067 116.498 30.64C116.525 30.4533 116.605 30.1333 116.738 29.68C116.871 29.2533 117.018 28.8267 117.178 28.4C117.365 27.9733 117.511 27.6667 117.618 27.48C117.778 27.2133 117.885 26.9067 117.938 26.56C118.018 26.2133 118.058 25.9467 118.058 25.76C118.111 25.5733 118.178 25.36 118.258 25.12C118.365 24.88 118.471 24.6933 118.578 24.56C118.631 24.3467 118.711 24.12 118.818 23.88C118.925 23.6133 119.045 23.3867 119.178 23.2C119.231 23.0133 119.271 22.7867 119.298 22.52C119.351 22.2533 119.431 22.1067 119.538 22.08C119.565 21.9733 119.578 21.8667 119.578 21.76C119.605 21.6533 119.658 21.5067 119.738 21.32C119.791 21.0267 119.911 20.6 120.098 20.04C120.285 19.48 120.511 18.8667 120.778 18.2C121.071 17.4267 121.205 16.6933 121.178 16C121.178 15.28 120.978 14.84 120.578 14.68C120.365 14.5733 120.231 14.4267 120.178 14.24C120.125 14.0267 120.151 13.8133 120.258 13.6C120.365 13.3867 120.525 13.24 120.738 13.16C120.978 13.0533 121.231 13.0133 121.498 13.04C121.791 13.0667 122.045 13.12 122.258 13.2C122.471 13.2533 122.565 13.3067 122.538 13.36C122.538 13.4933 122.605 13.5733 122.738 13.6C122.791 13.52 122.898 13.6133 123.058 13.88C123.245 14.12 123.418 14.4 123.578 14.72C123.738 15.04 123.818 15.2667 123.818 15.4C123.765 15.5067 123.738 15.5733 123.738 15.6C123.738 15.6 123.791 15.6 123.898 15.6C123.898 15.6 124.045 15.5333 124.338 15.4C124.631 15.24 124.938 15.0667 125.258 14.88C125.605 14.6667 125.831 14.5067 125.938 14.4C125.938 14.4 126.005 14.3733 126.138 14.32C126.298 14.24 126.431 14.1467 126.538 14.04C127.071 13.8267 127.645 13.7867 128.258 13.92C128.898 14.0533 129.405 14.2933 129.778 14.64C130.311 15.3067 130.578 15.9467 130.578 16.56C130.605 17.1733 130.431 17.9467 130.058 18.88C130.005 19.0133 129.885 19.24 129.698 19.56C129.538 19.8533 129.378 20.1333 129.218 20.4C129.058 20.64 128.978 20.76 128.978 20.76C128.365 21.72 127.645 22.52 126.818 23.16C125.991 23.8 125.151 24.36 124.298 24.84C124.031 25.0267 123.751 25.1733 123.458 25.28C123.191 25.36 122.951 25.4133 122.738 25.44C122.525 25.44 122.378 25.4133 122.298 25.36C122.005 25.1467 121.738 24.6933 121.498 24C121.365 24.3467 121.231 24.6933 121.098 25.04C120.991 25.36 120.925 25.5733 120.898 25.68C120.871 25.8667 120.845 26.0267 120.818 26.16C120.791 26.2667 120.725 26.36 120.618 26.44C120.618 26.44 120.605 26.4933 120.578 26.6C120.551 26.7067 120.458 26.8667 120.298 27.08C120.031 27.8533 119.791 28.52 119.578 29.08C119.365 29.6667 119.191 30.16 119.058 30.56C118.925 30.9867 118.818 31.36 118.738 31.68C118.685 32.4 118.538 33.1067 118.298 33.8C118.058 34.52 117.871 34.92 117.738 35ZM122.498 23.6C122.605 23.5467 122.831 23.4 123.178 23.16C123.551 22.8933 123.965 22.5867 124.418 22.24C124.871 21.8667 125.285 21.52 125.658 21.2C126.058 20.88 126.325 20.64 126.458 20.48C126.671 20.24 126.871 19.9867 127.058 19.72C127.245 19.4267 127.391 19.1067 127.498 18.76C127.578 18.5467 127.671 18.3067 127.778 18.04C127.885 17.7733 127.978 17.52 128.058 17.28C128.165 17.0667 128.205 16.8533 128.178 16.64C128.178 16.4 128.098 16.2 127.938 16.04C127.831 16.0133 127.511 16.0933 126.978 16.28C126.445 16.44 125.858 16.72 125.218 17.12C124.578 17.4933 124.018 17.9867 123.538 18.6C122.978 19.32 122.565 20.0667 122.298 20.84C122.058 21.6133 121.951 22.2667 121.978 22.8C122.031 23.3333 122.205 23.6 122.498 23.6ZM135.175 26.68C134.855 26.7333 134.509 26.68 134.135 26.52C133.762 26.36 133.429 26.1333 133.135 25.84C132.869 25.5467 132.695 25.24 132.615 24.92C132.509 24.36 132.575 23.6667 132.815 22.84C133.082 21.9867 133.455 21.0933 133.935 20.16C134.442 19.2 135.002 18.28 135.615 17.4C136.255 16.52 136.909 15.76 137.575 15.12C138.269 14.4533 138.909 14 139.495 13.76C139.789 13.5733 140.015 13.4533 140.175 13.4C140.362 13.32 140.549 13.3067 140.735 13.36C140.949 13.4133 141.255 13.5467 141.655 13.76C142.029 13.8667 142.309 13.9867 142.495 14.12C142.682 14.2533 142.922 14.52 143.215 14.92C143.429 15.32 143.589 15.72 143.695 16.12C143.802 16.52 143.895 16.9733 143.975 17.48C144.189 18.1467 144.269 18.5867 144.215 18.8C144.162 18.9867 144.082 19.1333 143.975 19.24C143.762 19.5067 143.709 19.64 143.815 19.64C143.815 19.64 143.802 19.6933 143.775 19.8C143.775 19.88 143.722 20.0133 143.615 20.2C143.429 20.7867 143.282 21.4 143.175 22.04C143.095 22.6533 143.109 23.16 143.215 23.56C143.429 24.1467 143.815 24.4933 144.375 24.6C144.935 24.7067 145.509 24.4667 146.095 23.88C146.389 23.6667 146.669 23.48 146.935 23.32C147.202 23.1333 147.335 23.1467 147.335 23.36C147.335 23.36 147.375 23.4 147.455 23.48C147.535 23.5333 147.629 23.56 147.735 23.56C147.869 23.56 147.949 23.6133 147.975 23.72C148.029 23.8267 148.029 23.9733 147.975 24.16C147.949 24.32 147.869 24.5067 147.735 24.72C147.335 25.12 147.135 25.3867 147.135 25.52C147.135 25.52 147.082 25.5733 146.975 25.68C146.895 25.76 146.749 25.8933 146.535 26.08C146.055 26.3733 145.442 26.52 144.695 26.52C143.975 26.52 143.415 26.3733 143.015 26.08C142.615 25.7867 142.242 25.3867 141.895 24.88C141.575 24.3733 141.362 23.9333 141.255 23.56L141.055 23.16L139.895 23.92C139.602 24.2133 139.282 24.4933 138.935 24.76C138.615 25.0267 138.402 25.2133 138.295 25.32C138.215 25.4267 138.122 25.52 138.015 25.6C137.935 25.68 137.842 25.72 137.735 25.72C137.629 25.72 137.535 25.72 137.455 25.72C137.375 25.72 137.335 25.72 137.335 25.72C137.335 25.8267 137.202 25.96 136.935 26.12C136.695 26.28 136.402 26.4133 136.055 26.52C135.735 26.6267 135.442 26.68 135.175 26.68ZM134.775 24.52C134.935 24.52 135.215 24.4 135.615 24.16C136.042 23.8933 136.509 23.5867 137.015 23.24C137.549 22.8933 138.015 22.5467 138.415 22.2C138.842 21.8533 139.135 21.5867 139.295 21.4C139.402 21.2933 139.575 21.12 139.815 20.88C140.055 20.6133 140.269 20.3867 140.455 20.2C141.069 19.5067 141.495 18.7467 141.735 17.92C141.975 17.0667 141.949 16.4 141.655 15.92C141.549 15.6267 141.415 15.4667 141.255 15.44C141.095 15.4133 140.762 15.5067 140.255 15.72C139.935 15.9067 139.535 16.2667 139.055 16.8C138.602 17.3067 138.109 17.9067 137.575 18.6C137.069 19.2667 136.589 19.96 136.135 20.68C135.682 21.4 135.309 22.0667 135.015 22.68C134.722 23.2933 134.575 23.7733 134.575 24.12C134.575 24.2267 134.602 24.32 134.655 24.4C134.735 24.48 134.775 24.52 134.775 24.52ZM154.022 35.64C153.515 35.8533 152.955 35.92 152.342 35.84C151.755 35.7867 151.168 35.6133 150.582 35.32C150.022 35.0267 149.515 34.6667 149.062 34.24C148.875 34.0533 148.675 33.76 148.462 33.36C148.275 32.9867 148.128 32.6267 148.022 32.28C147.942 31.9333 147.955 31.7333 148.062 31.68C148.168 31.6 148.315 31.5733 148.502 31.6C148.688 31.6267 148.862 31.6667 149.022 31.72C149.208 31.8 149.302 31.8933 149.302 32C149.462 32.1333 149.742 32.3333 150.142 32.6C150.542 32.8933 150.848 33.0667 151.062 33.12C151.622 33.3067 152.035 33.3867 152.302 33.36C152.568 33.3333 152.808 33.24 153.022 33.08C153.448 32.7067 153.782 32.2533 154.022 31.72C154.262 31.1867 154.515 30.4533 154.782 29.52L154.902 29C155.115 28.0133 155.355 26.96 155.622 25.84C155.888 24.72 156.115 23.84 156.302 23.2C156.435 22.5867 156.475 22.1733 156.422 21.96C156.395 21.7467 156.275 21.7867 156.062 22.08C155.955 22.1067 155.808 22.16 155.622 22.24C155.462 22.32 155.275 22.4133 155.062 22.52C154.742 22.68 154.422 22.84 154.102 23C153.782 23.1333 153.515 23.2267 153.302 23.28C153.088 23.28 152.888 23.2933 152.702 23.32C152.515 23.32 152.422 23.32 152.422 23.32C152.208 23.4533 151.822 23.44 151.262 23.28C150.728 23.0933 150.248 22.8267 149.822 22.48C149.582 22.16 149.408 21.92 149.302 21.76C149.195 21.5733 149.128 21.3867 149.102 21.2C149.075 20.9867 149.062 20.6667 149.062 20.24C149.035 19.8133 149.235 19.2 149.662 18.4C150.115 17.5733 150.662 16.8 151.302 16.08C151.808 15.5733 152.462 15.0533 153.262 14.52C154.062 13.9867 154.862 13.5467 155.662 13.2C156.488 12.8533 157.168 12.6933 157.702 12.72C157.968 12.7467 158.222 12.7867 158.462 12.84C158.702 12.8667 158.968 12.9867 159.262 13.2C159.635 13.3867 159.902 13.5867 160.062 13.8C160.222 14.0133 160.435 14.4267 160.702 15.04C160.862 15.4667 160.982 15.8933 161.062 16.32C161.142 16.72 161.182 17.1067 161.182 17.48C161.182 17.88 161.128 18.24 161.022 18.56C160.915 18.88 160.768 19.1333 160.582 19.32C160.528 19.32 160.462 19.3333 160.382 19.36C160.328 19.36 160.275 19.3733 160.222 19.4C160.062 19.4533 159.928 19.48 159.822 19.48C159.742 19.48 159.648 19.5733 159.542 19.76C159.435 19.92 159.355 20.1333 159.302 20.4C159.275 20.56 159.235 20.72 159.182 20.88C159.155 21.04 159.115 21.1867 159.062 21.32C159.008 21.4533 158.955 21.5733 158.902 21.68C158.875 21.76 158.862 21.8267 158.862 21.88C158.862 21.96 158.848 22.0267 158.822 22.08C158.795 22.1333 158.755 22.2 158.702 22.28C158.622 22.4133 158.542 22.5867 158.462 22.8C158.408 22.9867 158.382 23.1867 158.382 23.4L158.222 23.84C158.142 24.1067 158.062 24.3467 157.982 24.56C157.928 24.7733 157.902 24.9067 157.902 24.96L157.742 25.76C157.688 25.9467 157.622 26.12 157.542 26.28C157.488 26.4133 157.435 26.6267 157.382 26.92C157.328 27.1867 157.262 27.6267 157.182 28.24C156.648 30.5333 156.115 32.2533 155.582 33.4C155.048 34.5733 154.528 35.32 154.022 35.64ZM151.262 21.12C151.955 21.3867 152.675 21.4133 153.422 21.2C154.168 20.9867 155.022 20.5067 155.982 19.76C156.595 19.3067 157.102 18.7867 157.502 18.2C157.928 17.5867 158.235 16.96 158.422 16.32C158.555 15.92 158.595 15.64 158.542 15.48C158.488 15.2933 158.315 15.1867 158.022 15.16C157.568 15.0533 156.995 15.1333 156.302 15.4C155.608 15.64 154.902 15.9867 154.182 16.44C154.048 16.6267 153.888 16.8 153.702 16.96C153.515 17.12 153.342 17.2533 153.182 17.36C153.048 17.44 152.982 17.48 152.982 17.48C152.955 17.5333 152.915 17.6 152.862 17.68C152.835 17.76 152.768 17.8267 152.662 17.88C152.395 18.12 152.128 18.48 151.862 18.96C151.595 19.44 151.395 19.8933 151.262 20.32C151.155 20.7467 151.155 21.0133 151.262 21.12ZM170.36 26.6C169.8 27.08 169.147 27.36 168.4 27.44C167.68 27.52 166.974 27.4133 166.28 27.12C165.587 26.8 165.014 26.32 164.56 25.68C164.107 25.0933 163.814 24.4267 163.68 23.68C163.547 22.9067 163.534 21.9067 163.64 20.68C163.72 19.64 164.054 18.6 164.64 17.56C165.227 16.4933 165.934 15.5467 166.76 14.72C167.614 13.8933 168.454 13.32 169.28 13C169.68 12.7333 170.014 12.6133 170.28 12.64C170.574 12.64 171.014 12.6667 171.6 12.72C172.214 12.8 172.667 12.92 172.96 13.08C173.28 13.24 173.534 13.4533 173.72 13.72C174.12 14.12 174.387 14.52 174.52 14.92C174.654 15.2933 174.72 15.6667 174.72 16.04C174.614 16.6267 174.214 17.3467 173.52 18.2C172.854 19.0267 171.974 19.7067 170.88 20.24C170.294 20.4267 169.654 20.5067 168.96 20.48C168.267 20.4533 167.694 20.28 167.24 19.96C166.734 19.7467 166.4 19.7867 166.24 20.08C166.08 20.3467 165.934 21.0133 165.8 22.08C165.694 23.0933 165.774 23.84 166.04 24.32C166.307 24.7733 166.667 25.04 167.12 25.12C167.654 25.2267 168.067 25.3067 168.36 25.36C168.68 25.3867 169.067 25.2667 169.52 25C169.947 24.7333 170.214 24.5867 170.32 24.56C170.427 24.5067 170.507 24.4533 170.56 24.4C170.64 24.32 170.814 24.1467 171.08 23.88C171.267 23.6933 171.414 23.56 171.52 23.48C171.627 23.3733 171.747 23.32 171.88 23.32C172.014 23.32 172.134 23.3867 172.24 23.52C172.347 23.6267 172.454 23.7067 172.56 23.76C172.827 23.76 172.88 23.92 172.72 24.24C172.587 24.56 172.307 24.9467 171.88 25.4C171.454 25.8267 170.947 26.2267 170.36 26.6ZM170.32 18.12C170.614 17.9867 170.92 17.8 171.24 17.56C171.56 17.2933 171.827 17.0133 172.04 16.72C172.28 16.4 172.4 16.1333 172.4 15.92C172.4 15.5467 172.227 15.24 171.88 15C171.534 14.7333 171.014 14.6933 170.32 14.88C170.027 14.96 169.694 15.16 169.32 15.48C168.947 15.7733 168.587 16.1067 168.24 16.48C167.92 16.8533 167.654 17.1867 167.44 17.48C167.254 17.7733 167.187 17.9467 167.24 18C167.32 18.1333 167.547 18.24 167.92 18.32C168.294 18.3733 168.707 18.3867 169.16 18.36C169.64 18.3333 170.027 18.2533 170.32 18.12Z" fill="black"/>
</svg>
