<svg width="716" height="684" viewBox="0 0 716 684" fill="none" xmlns="http://www.w3.org/2000/svg">
<rect x="36.163" y="310.332" width="81" height="79" rx="9.5" transform="rotate(-38.1806 36.163 310.332)" fill="#FFEDC2" stroke="#777777"/>
<rect x="27.5698" y="310.729" width="83" height="79" rx="9.5" transform="rotate(-38.1806 27.5698 310.729)" fill="#FFEDC2" stroke="#777777"/>
<path d="M81.3467 291.956C81.3467 291.956 80.177 293.162 82.6702 295.896L97.6698 312.495C100.08 315.122 101.527 314.27 101.527 314.27L94.7358 319.611C94.7358 319.611 95.9055 318.405 93.468 315.742L78.4405 299.107C78.1548 298.817 77.8969 298.561 77.6668 298.342C77.7554 298.673 77.8718 299.039 78.0161 299.441L86.5204 322.923C86.8848 323.896 87.3429 325.424 85.2558 327.066L62.2751 311.819C61.8276 311.541 61.408 311.299 61.0161 311.092C61.1957 311.466 61.4385 311.847 61.7091 312.264L74.3312 330.79C76.3443 333.787 77.7922 332.935 77.7922 332.935L73.2998 336.468C73.2998 336.468 74.5049 335.234 72.4842 332.3L59.89 313.809C57.8213 310.742 56.3734 311.594 56.3734 311.594L64.4384 305.252C64.4384 305.252 63.2687 306.458 66.5401 308.58L82.8668 319.441L76.1969 300.986C74.871 297.334 73.4232 298.187 73.4232 298.187L81.3467 291.956Z" fill="#38383A"/>
<path d="M119.713 314.752L121.199 313.584L127.615 321.743L126.129 322.911L120.371 315.589L119.511 316.266L119.713 314.752Z" fill="#777777"/>
<rect x="196.55" y="503.725" width="81" height="79" rx="9.5" transform="rotate(-38.1806 196.55 503.725)" fill="#FFEDC2" stroke="#777777"/>
<rect x="187.957" y="504.122" width="83" height="79" rx="9.5" transform="rotate(-38.1806 187.957 504.122)" fill="#FFEDC2" stroke="#777777"/>
<path d="M256.532 511.896L239.093 525.609C239.093 525.609 240.227 524.431 238.002 521.601L224.177 504.021C221.98 501.226 220.54 502.015 220.54 502.015L227.331 496.675C227.331 496.675 226.126 497.909 228.407 500.809L242.204 518.354C242.899 519.238 243.514 519.729 244.052 520.049L247.059 517.685C254.77 511.621 252.908 507.36 252.908 507.36L256.532 511.896Z" fill="#38383A"/>
<path d="M280.1 508.145L281.585 506.977L288.002 515.136L286.516 516.304L280.758 508.982L279.897 509.659L280.1 508.145Z" fill="#777777"/>
<rect x="98.457" y="581.845" width="81" height="79" rx="9.5" transform="rotate(-38.1806 98.457 581.845)" fill="#FFEDC2" stroke="#777777"/>
<rect x="89.8642" y="582.242" width="83" height="79" rx="9.5" transform="rotate(-38.1806 89.8642 582.242)" fill="#FFEDC2" stroke="#777777"/>
<path d="M128.9 575.061C135.727 569.693 142.942 567.511 147.114 572.817C151.259 578.088 148.708 583.871 143.155 588.239C142.341 588.878 139.385 591.089 138.213 591.782L142.747 597.547C144.944 600.342 146.427 599.462 146.427 599.462L139.636 604.802C139.636 604.802 140.806 603.596 138.58 600.767L124.756 583.186C122.558 580.392 121.082 581.209 121.082 581.209C121.082 581.209 128.475 575.395 128.9 575.061ZM139.713 588.884C144.205 585.352 146.604 580.832 143.099 576.375C139.567 571.882 134.505 572.943 130.012 576.476C129.234 577.088 128.567 577.842 128.055 578.645C128.262 579.055 128.56 579.507 128.95 580.002L137.156 590.437C138.108 589.974 139.076 589.385 139.713 588.884Z" fill="#38383A"/>
<path d="M182.007 586.265L183.493 585.097L189.909 593.256L188.423 594.425L182.665 587.102L181.804 587.779L182.007 586.265Z" fill="#777777"/>
<rect x="593.509" y="199.488" width="81" height="79" rx="9.5" transform="rotate(-38.1806 593.509 199.488)" fill="#FFEDC2" stroke="#777777"/>
<rect x="584.916" y="199.884" width="83" height="79" rx="9.5" transform="rotate(-38.1806 584.916 199.884)" fill="#FFEDC2" stroke="#777777"/>
<path d="M648.077 211.916C648.077 211.916 649.176 210.765 645.429 209.132L638.119 205.95C637.199 206.673 634.356 208.737 633.247 209.437L637.781 215.203C639.979 217.998 641.462 217.117 641.462 217.117L634.67 222.458C634.67 222.458 635.805 221.28 633.579 218.45L619.755 200.87C617.557 198.075 616.117 198.864 616.117 198.864C616.117 198.864 623.51 193.051 623.934 192.717C630.761 187.348 637.976 185.167 642.149 190.473C645.264 194.435 644.561 198.709 641.711 202.438L649.631 205.885C653.314 207.511 654.868 206.575 654.868 206.575L648.077 211.916ZM634.747 206.54C639.24 203.008 641.639 198.488 638.134 194.031C634.601 189.538 629.539 190.599 625.047 194.132C624.269 194.744 623.602 195.497 623.089 196.301C623.296 196.711 623.595 197.163 623.984 197.658L632.19 208.093C633.143 207.63 634.111 207.041 634.747 206.54Z" fill="#38383A"/>
<path d="M677.059 203.907L678.544 202.739L684.961 210.899L683.475 212.067L677.717 204.745L676.856 205.421L677.059 203.907Z" fill="#777777"/>
<rect x="290.699" y="424.403" width="81" height="79" rx="9.5" transform="rotate(-38.1806 290.699 424.403)" fill="#FFEDC2" stroke="#777777"/>
<rect x="282.106" y="424.8" width="83" height="79" rx="9.5" transform="rotate(-38.1806 282.106 424.8)" fill="#FFEDC2" stroke="#777777"/>
<path d="M347.532 435.05C347.532 435.05 348.631 433.9 345.345 431.904L339.247 428.227L329.413 435.96L331.549 442.753C332.713 446.417 334.091 445.62 334.091 445.62L329.598 449.153C329.598 449.153 330.839 447.891 329.702 444.262L322.485 421.543C321.3 417.781 319.888 418.605 319.888 418.605L324.097 415.295C324.769 414.766 325.833 414.445 329.17 416.286L349.547 428.657C352.805 430.617 354.324 429.709 354.324 429.709L347.532 435.05ZM328.783 433.994L337.485 427.151L324.905 419.526C324.64 419.334 324.339 419.169 324.066 419.041C324.127 419.336 324.215 419.667 324.339 419.971L328.783 433.994Z" fill="#38383A"/>
<path d="M374.249 428.823L375.735 427.655L382.151 435.814L380.665 436.982L374.907 429.66L374.047 430.337L374.249 428.823Z" fill="#777777"/>
<rect x="393.785" y="346.537" width="81" height="79" rx="9.5" transform="rotate(-38.1806 393.785 346.537)" fill="#FFEDC2" stroke="#777777"/>
<rect x="385.192" y="346.933" width="83" height="79" rx="9.5" transform="rotate(-38.1806 385.192 346.933)" fill="#FFEDC2" stroke="#777777"/>
<path d="M433.756 351.151L421.019 347.256C416.686 345.969 415.132 346.905 415.132 346.905L421.924 341.564C421.924 341.564 420.924 342.694 425.067 343.959L435.89 347.24L435.006 336.143C434.648 331.902 433.314 332.607 433.314 332.607L437.842 329.047C437.842 329.047 436.531 330.364 436.866 334.795L437.93 347.869L444.94 356.783C447.165 359.613 448.613 358.76 448.613 358.76L441.786 364.129C441.786 364.129 442.991 362.895 440.794 360.1L433.756 351.151Z" fill="#38383A"/>
<path d="M477.335 350.956L478.821 349.788L485.237 357.948L483.751 359.116L477.993 351.794L477.133 352.471L477.335 350.956Z" fill="#777777"/>
<rect x="135.254" y="232.263" width="81" height="79" rx="9.5" transform="rotate(-38.1806 135.254 232.263)" fill="#FFEDC2" stroke="#777777"/>
<rect x="126.661" y="232.659" width="83" height="79" rx="9.5" transform="rotate(-38.1806 126.661 232.659)" fill="#FFEDC2" stroke="#777777"/>
<path d="M165.844 227.08C166.001 227.644 166.388 228.427 167.111 229.347L171.868 235.396L173.495 234.116C179.084 229.721 178.782 227.954 178.782 227.954L181.425 231.315C181.425 231.315 179.779 230.605 174.19 235L172.563 236.28L180.908 246.892C181.603 247.776 182.218 248.266 182.756 248.587L185.763 246.223C193.474 240.159 191.612 235.898 191.612 235.898L195.236 240.433L177.797 254.147C177.797 254.147 178.932 252.969 176.706 250.139L162.881 232.558C160.684 229.764 159.244 230.553 159.244 230.553L176.683 216.84L180.235 221.43C180.235 221.43 176.562 218.652 168.851 224.716L165.844 227.08Z" fill="#38383A"/>
<path d="M218.804 236.683L220.289 235.514L226.706 243.674L225.22 244.842L219.462 237.52L218.601 238.197L218.804 236.683Z" fill="#777777"/>
<rect x="227.947" y="161.878" width="81" height="79" rx="9.5" transform="rotate(-38.1806 227.947 161.878)" fill="#FFEDC2" stroke="#777777"/>
<rect x="219.354" y="162.275" width="83" height="79" rx="9.5" transform="rotate(-38.1806 219.354 162.275)" fill="#FFEDC2" stroke="#777777"/>
<path d="M258.537 156.696C258.694 157.259 259.081 158.043 259.804 158.962L264.561 165.011L266.188 163.732C271.777 159.337 271.476 157.57 271.476 157.57L274.118 160.93C274.118 160.93 272.473 160.221 266.884 164.616L265.257 165.895L273.601 176.507C274.297 177.392 274.911 177.882 275.45 178.203L278.456 175.838C286.168 169.774 284.306 165.514 284.306 165.514L287.929 170.049L270.491 183.762C270.491 183.762 271.625 182.584 269.4 179.754L255.575 162.174C253.377 159.379 251.937 160.169 251.937 160.169L269.376 146.455L272.929 151.046C272.929 151.046 269.255 148.267 261.544 154.331L258.537 156.696Z" fill="#38383A"/>
<path d="M311.497 166.298L312.983 165.13L319.399 173.289L317.913 174.458L312.155 167.135L311.295 167.812L311.497 166.298Z" fill="#777777"/>
<rect x="490.677" y="272.361" width="81" height="79" rx="9.5" transform="rotate(-38.1806 490.677 272.361)" fill="#FFEDC2" stroke="#777777"/>
<rect x="482.084" y="272.757" width="83" height="79" rx="9.5" transform="rotate(-38.1806 482.084 272.757)" fill="#FFEDC2" stroke="#777777"/>
<path d="M521.267 267.178C521.424 267.741 521.811 268.525 522.534 269.444L527.291 275.493L528.918 274.214C534.507 269.819 534.205 268.052 534.205 268.052L536.848 271.413C536.848 271.413 535.202 270.703 529.613 275.098L527.986 276.378L536.331 286.989C537.026 287.874 537.641 288.364 538.179 288.685L541.186 286.32C548.897 280.256 547.035 275.996 547.035 275.996L550.659 280.531L533.22 294.245C533.22 294.245 534.354 293.066 532.129 290.236L518.304 272.656C516.107 269.862 514.667 270.651 514.667 270.651L532.105 256.937L535.658 261.528C535.658 261.528 531.985 258.749 524.274 264.813L521.267 267.178Z" fill="#38383A"/>
<path d="M574.227 276.78L575.712 275.612L582.129 283.771L580.643 284.94L574.885 277.617L574.024 278.294L574.227 276.78Z" fill="#777777"/>
<rect x="327.986" y="84.8584" width="81" height="79" rx="9.5" transform="rotate(-38.1806 327.986 84.8584)" fill="#FFEDC2" stroke="#777777"/>
<rect x="319.394" y="85.255" width="83" height="79" rx="9.5" transform="rotate(-38.1806 319.394 85.255)" fill="#FFEDC2" stroke="#777777"/>
<path d="M351.164 83.787L370.23 68.7939L373.783 73.3849C373.783 73.3849 370.577 70.9826 363.877 75.565C364.069 76.1008 364.4 76.8134 365.068 77.6623L378.865 95.2073C381.146 98.1079 382.629 97.2278 382.629 97.2278L375.837 102.569C375.837 102.569 376.944 101.355 374.746 98.5604L360.922 80.98C360.254 80.1311 359.647 79.5778 359.137 79.2924C353.174 84.6682 354.753 88.3501 354.753 88.3501L351.164 83.787Z" fill="#38383A"/>
<path d="M411.536 89.2782L413.022 88.1099L419.438 96.2693L417.952 97.4376L412.194 90.1154L411.334 90.7922L411.536 89.2782Z" fill="#777777"/>
<rect x="410.948" y="186.201" width="81" height="79" rx="9.5" transform="rotate(-38.1806 410.948 186.201)" fill="#FFEDC2" stroke="#777777"/>
<rect x="402.355" y="186.598" width="83" height="79" rx="9.5" transform="rotate(-38.1806 402.355 186.598)" fill="#FFEDC2" stroke="#777777"/>
<path d="M450.454 197.135L454.599 202.406C456.796 205.2 458.28 204.32 458.28 204.32L451.488 209.661C451.488 209.661 452.622 208.483 450.397 205.653L436.572 188.072C434.375 185.278 432.934 186.067 432.934 186.067L439.726 180.726C439.726 180.726 438.521 181.96 440.802 184.861L449.258 195.614L459.764 187.353L451.252 176.529C449.055 173.734 447.579 174.551 447.579 174.551L454.37 169.21C454.37 169.21 453.201 170.416 455.482 173.317L469.279 190.862C471.476 193.656 472.924 192.804 472.924 192.804L466.132 198.145C466.132 198.145 467.302 196.939 465.077 194.109L460.96 188.874L450.454 197.135Z" fill="#38383A"/>
<path d="M494.498 190.621L495.984 189.453L502.4 197.612L500.914 198.781L495.156 191.458L494.296 192.135L494.498 190.621Z" fill="#777777"/>
</svg>
